<?xml version="1.0" encoding="UTF-8"?>
<svg id="Layer_2" data-name="Layer 2" xmlns="http://www.w3.org/2000/svg" viewBox="0 0 521.52 220.53">
  <defs>
    <style>
      .cls-1 {
        fill: #1f3742;
      }
    </style>
  </defs>
  <g id="Layer_1-2" data-name="Layer 1">
    <g>
      <path class="cls-1" d="M75.23,17.65c6.86-2.5,13.01-5.31,20.27-6.44-11.05.17-20.08,3.69-30.53,6.75-13.33,4.74-25.78,11.78-36.7,20.75C14.62,50.33,4.86,65.7,0,82.99c2.55-8.38,6.62-16.25,12-23.17,16.64-19.62,39.39-32.96,63.23-42.17Z"/>
      <path class="cls-1" d="M77.8,210.86c-7.05-2.24-12.67-6.93-15.89-13.41-.24-4.89,1.67-9.47,5.27-13.02,19.3-25.36,51.19-37.95,78.47-53.02,17.7-8.87,29.78-23.99,32.6-43.29-.17-5.68-.93-11.33-2.26-16.85.35,3.16.02,6.35-.97,9.36-4.17,8.32-11.4,14.41-20.41,17.44-31.93,14.55-66.97,28.19-90.25,55.53-13.04,15.66-14.92,34.74-3.21,51.1,1.16,1.04,2.37,2.01,3.62,2.9-7.01-3.77-13.47-8.54-19.14-14.16-7.37-6.88-13.04-15.34-16.56-24.76-1.72-5.79-1.92-11.91-.6-17.81,7.06-27.7,32.35-43.21,57.34-53.85h0s1.26-.63,1.26-.63c5.87-2.9,11.68-5.91,17.44-9.02,16.05-7.89,29.63-19.84,39.18-34.86,5.48-9.65,6.11-20.39,1.56-30.29-.18-.65-.56-1.15-1.14-1.47h0s-.02,0-.03,0h0s-.02.02-.03.02c0,.03-.02.06-.03.09.29,1.76.73,3.5,1.34,5.18.5,7.47-3.51,13.43-10.63,16.85-11.01,6.58-22.82,11.86-35.09,15.69-4.33,1.64-8.64,3.33-12.93,5.07-25.63,9.12-49.23,25.16-60.47,50.57-8.18,21.96-5.84,46.15,6.09,66.3,1.81,2.88,3.8,5.63,5.93,8.22-9.17-8.83-16.75-19.24-22.31-30.69-4.31-8.79-7.23-18.24-8.63-27.92-.73-6.05-.59-12.2.41-18.22,4.02-24.44,22.2-42.27,44.33-52.22l56.22-27.85,11.07-5.76c6.98-2.84,11.38-7.79,10.17-13.76-.6-.37-2.18.69-2.18.69-4.62,3.97-10.38,4.88-18.28,7.28-13.34,3.74-26.59,7.79-39.74,12.14-25.06,8.51-47.38,24.94-57.69,49.82-7.49,19.59-7.86,41.04-2.2,61.21,6.23,21.41,19.18,40.29,36.81,53.93.12.08.24.16.35.23h0s0,0,0,0h0c-.2-.25-.4-.5-.59-.75,8.83,8.04,19.43,13.98,31.19,17.3.41.13.85.2,1.28.21-.14-.13-.29-.26-.43-.39,5.97,1.69,12.27,2.07,18.5,1.05-6.48.11-12.91-1.34-18.74-4.21Z"/>
      <path class="cls-1" d="M183.41,54.05c2.89,2.71,6.24,4.85,9.96,6.35,3.73,1.5,7.58,2.26,11.45,2.26,6.11,0,11.22-1.12,15.19-3.32,3.99-2.21,6.87-5.55,8.56-9.92l.03-11.57c0-1.32.12-2.38.37-3.14.23-.72.57-1.26,1.02-1.6.46-.35,1.03-.59,1.7-.69.72-.11,1.57-.17,2.51-.17h.41v-1.51h-18.18v1.51h.41c.94,0,1.79.06,2.51.17.67.1,1.24.34,1.7.69.45.35.79.89,1.02,1.6.24.76.37,1.81.37,3.14v6.79c0,3.24-.49,5.93-1.46,7.98-.97,2.04-2.27,3.67-3.86,4.82-1.61,1.16-3.49,1.98-5.6,2.42-2.13.45-4.39.68-6.7.68-3.36,0-6.57-.79-9.56-2.36-3-1.57-5.65-3.7-7.86-6.34-2.22-2.64-4-5.76-5.3-9.28-1.29-3.51-1.95-7.29-1.95-11.24s.6-7.73,1.78-11.25c1.18-3.52,2.86-6.65,5-9.32,2.13-2.66,4.71-4.81,7.69-6.38,2.96-1.56,6.31-2.36,9.94-2.36,3.3,0,6.1.55,8.32,1.63,2.23,1.08,4.12,2.55,5.62,4.36,1.51,1.82,2.78,3.95,3.76,6.33.99,2.42,1.87,4.96,2.6,7.56l.09.3h1.73l-1.7-12.24-.06-.17c-2.15-3.31-4.91-5.8-8.2-7.4-3.28-1.6-7.37-2.4-12.16-2.4-4.15,0-8.15.76-11.88,2.26-3.73,1.5-7.02,3.64-9.8,6.36-2.77,2.72-5.02,6.04-6.66,9.88-1.65,3.84-2.48,8.16-2.48,12.83s.89,9,2.66,12.84c1.76,3.84,4.12,7.16,7.01,9.88Z"/>
      <path class="cls-1" d="M279.76,51.19h-1.28l-.07.32c-.66,2.97-1.54,5.15-2.59,6.48-1.03,1.29-2.51,1.92-4.52,1.92h-17.62V23.83c0-.91.08-1.64.25-2.16.15-.48.38-.84.67-1.06.3-.24.69-.39,1.13-.46.5-.08,1.08-.12,1.74-.12h.41v-1.31h-12.97v1.31h.41c.66,0,1.24.04,1.74.12.45.07.83.22,1.13.46.29.23.52.58.67,1.06.17.52.25,1.24.25,2.16v32.71c0,.91-.08,1.64-.25,2.16-.15.48-.38.84-.67,1.06-.31.24-.68.39-1.13.46-.5.08-1.08.12-1.74.12h-.41v1.31h33.54l1.31-10.45Z"/>
      <path class="cls-1" d="M293.49,56.16c1.95,1.91,4.31,3.42,6.99,4.48,2.68,1.06,5.62,1.59,8.75,1.59s6.07-.54,8.75-1.59c2.69-1.06,5.04-2.56,6.99-4.48,1.95-1.91,3.51-4.25,4.63-6.96,1.12-2.71,1.68-5.74,1.68-9.03s-.57-6.32-1.68-9.03c-1.12-2.71-2.68-5.05-4.63-6.96-1.96-1.91-4.31-3.42-6.99-4.48-2.68-1.06-5.63-1.59-8.75-1.59s-6.07.54-8.75,1.59c-2.68,1.06-5.04,2.56-6.99,4.48-1.95,1.91-3.51,4.25-4.63,6.96-1.12,2.7-1.68,5.74-1.68,9.03s.57,6.32,1.68,9.03c1.12,2.7,2.68,5.04,4.63,6.96ZM293.15,32.28c.82-2.45,2-4.62,3.5-6.45,1.5-1.83,3.33-3.3,5.46-4.37,2.12-1.07,4.51-1.61,7.12-1.61s5,.54,7.12,1.61c2.12,1.07,3.96,2.54,5.46,4.37,1.5,1.84,2.68,4.01,3.5,6.45.82,2.45,1.24,5.11,1.24,7.9s-.42,5.39-1.24,7.86c-.82,2.46-2,4.65-3.5,6.48-1.5,1.83-3.33,3.3-5.46,4.37-2.11,1.07-4.51,1.61-7.12,1.61s-5.01-.54-7.12-1.61c-2.12-1.07-3.96-2.54-5.46-4.37-1.5-1.83-2.68-4.01-3.5-6.48-.82-2.47-1.24-5.12-1.24-7.86s.42-5.44,1.24-7.9Z"/>
      <path class="cls-1" d="M364.29,61.15c2.55-.32,4.88-.94,6.94-1.83,2.08-.91,3.78-2.17,5.06-3.76,1.3-1.61,1.96-3.75,1.96-6.36,0-2.02-.41-3.79-1.23-5.25-.81-1.45-1.91-2.69-3.27-3.68-1.35-.98-2.95-1.77-4.75-2.34-1.05-.33-2.14-.61-3.25-.84,2.31-.54,4.23-1.34,5.74-2.4,2.05-1.44,3.09-3.49,3.09-6.11,0-1.88-.46-3.48-1.37-4.75-.9-1.26-2.17-2.27-3.77-3.02-1.57-.73-3.47-1.27-5.64-1.6-2.15-.32-4.55-.49-7.12-.49h-17.43v1.31h.41c.66,0,1.24.04,1.74.12.45.07.83.22,1.13.46.29.23.52.59.67,1.06.17.52.25,1.24.25,2.16v32.71c0,.91-.08,1.64-.25,2.16-.15.48-.38.84-.67,1.06-.3.24-.67.39-1.13.46-.5.08-1.08.12-1.74.12h-.41v1.31h17.43c2.53,0,5.1-.16,7.63-.48ZM348,20.45h8.12c4.39,0,7.83.7,10.22,2.08,2.35,1.36,3.49,3.33,3.49,6.05,0,2.39-1.14,4.22-3.49,5.59-2.39,1.4-5.83,2.11-10.22,2.11h-8.12v-15.83ZM348,59.9v-21.9h8.12c2.4,0,4.7.2,6.84.59,2.11.39,3.96,1.04,5.52,1.94,1.54.88,2.77,2.04,3.68,3.44.89,1.39,1.35,3.14,1.35,5.22s-.45,3.74-1.34,5.09c-.9,1.36-2.14,2.47-3.67,3.29-1.56.84-3.41,1.44-5.52,1.79-2.13.36-4.43.54-6.85.54h-8.12Z"/>
      <path class="cls-1" d="M394.53,60.33h-.41c-.66,0-1.22-.04-1.68-.12-.37-.06-.62-.19-.75-.38-.13-.18-.16-.51-.08-.95.09-.53.34-1.27.72-2.19l4.25-9.61h19.93l4.34,9.61c.42.97.67,1.72.75,2.23.06.44.01.75-.15.94-.17.2-.46.32-.88.37-.51.06-1.1.09-1.76.09h-.41v1.31h13.39v-1.31h-.41c-.66,0-1.27-.04-1.81-.12-.51-.07-.97-.24-1.38-.49-.41-.25-.82-.64-1.21-1.16-.4-.54-.82-1.28-1.25-2.21l-17.13-38-.11-.24h-1.02l-17.01,38.26c-.34.92-.73,1.65-1.14,2.18-.4.51-.85.9-1.31,1.15-.47.25-.99.42-1.54.5-.58.08-1.21.12-1.87.12h-.41v1.31h10.33v-1.31ZM406.5,24.72l9.28,20.64h-18.44l9.16-20.64Z"/>
      <path class="cls-1" d="M474.12,51.19h-1.28l-.07.32c-.66,2.97-1.54,5.15-2.59,6.48-1.03,1.29-2.51,1.92-4.52,1.92h-17.62V23.83c0-.91.08-1.64.25-2.16.15-.48.38-.84.67-1.06.31-.24.68-.39,1.13-.46.5-.08,1.08-.12,1.74-.12h.41v-1.31h-12.97v1.31h.41c.66,0,1.24.04,1.74.12.45.07.83.22,1.13.46.29.23.52.59.67,1.06.17.52.25,1.24.25,2.16v32.71c0,.91-.08,1.64-.25,2.16-.15.48-.38.84-.67,1.06-.3.24-.67.39-1.13.46-.5.08-1.08.12-1.74.12h-.41v1.31h33.54l1.3-10.45Z"/>
      <path class="cls-1" d="M247.98,87.82h.41c.94,0,1.79.06,2.51.17.67.1,1.24.34,1.7.69.45.35.79.88,1.02,1.6.24.76.37,1.81.37,3.14v17.11h-38.77v-17.11c0-1.32.12-2.38.37-3.14.23-.72.57-1.26,1.02-1.6.46-.36,1.03-.59,1.7-.69.72-.11,1.57-.17,2.52-.17h.41v-1.51h-18.18v1.51h.41c.94,0,1.79.06,2.51.17.67.1,1.24.34,1.7.69.45.35.79.89,1.02,1.6.24.76.37,1.81.37,3.14v46.72c0,1.33-.12,2.38-.37,3.14-.23.72-.57,1.26-1.02,1.6-.46.36-1.03.59-1.7.69-.71.11-1.56.17-2.51.17h-.41v1.51h18.18v-1.51h-.41c-.96,0-1.8-.06-2.52-.17-.67-.1-1.24-.34-1.7-.69-.45-.34-.79-.88-1.02-1.6-.24-.76-.37-1.81-.37-3.14v-27.5h38.77v27.5c0,1.32-.12,2.38-.37,3.14-.23.72-.57,1.26-1.02,1.6-.46.36-1.03.59-1.7.69-.72.11-1.56.17-2.52.17h-.41v1.51h18.18v-1.51h-.41c-.96,0-1.8-.06-2.51-.17-.67-.1-1.24-.34-1.7-.69-.45-.34-.79-.88-1.02-1.6-.25-.76-.37-1.81-.37-3.14v-46.72c0-1.32.12-2.38.37-3.14.23-.72.57-1.26,1.02-1.6.46-.36,1.03-.59,1.7-.69.72-.11,1.57-.17,2.51-.17h.41v-1.51h-18.18v1.51Z"/>
      <path class="cls-1" d="M315.8,109.82c-1.96-1.91-4.31-3.42-6.99-4.48-2.68-1.06-5.63-1.59-8.75-1.59s-6.07.54-8.75,1.59c-2.68,1.06-5.04,2.56-6.99,4.48-1.95,1.91-3.51,4.25-4.63,6.96-1.12,2.7-1.68,5.74-1.68,9.03s.57,6.33,1.68,9.03c1.12,2.7,2.68,5.04,4.63,6.96,1.95,1.91,4.31,3.42,6.99,4.48,2.68,1.06,5.63,1.59,8.75,1.59s6.07-.54,8.75-1.59c2.69-1.06,5.04-2.56,6.99-4.48,1.95-1.91,3.51-4.25,4.63-6.96,1.12-2.71,1.69-5.74,1.69-9.03s-.57-6.32-1.69-9.03c-1.12-2.71-2.68-5.05-4.63-6.96ZM316.14,133.67c-.82,2.46-2,4.65-3.5,6.48-1.5,1.83-3.33,3.3-5.46,4.37-2.11,1.07-4.51,1.61-7.12,1.61s-5-.54-7.12-1.61c-2.12-1.07-3.96-2.54-5.46-4.37-1.51-1.84-2.69-4.02-3.51-6.48-.82-2.47-1.24-5.12-1.24-7.86s.42-5.45,1.24-7.9c.82-2.44,2-4.62,3.51-6.45,1.5-1.83,3.33-3.3,5.46-4.37,2.12-1.07,4.51-1.61,7.12-1.61s5,.54,7.12,1.61c2.12,1.07,3.96,2.54,5.46,4.37,1.5,1.84,2.68,4.01,3.5,6.45.82,2.45,1.24,5.11,1.24,7.9s-.42,5.39-1.24,7.86Z"/>
      <path class="cls-1" d="M346.65,144.31c-.15.48-.38.84-.67,1.06-.3.23-.68.39-1.13.46-.5.08-1.08.12-1.74.12h-.41v1.31h12.97v-1.31h-.41c-.66,0-1.24-.04-1.74-.12-.46-.07-.83-.22-1.13-.46-.29-.23-.52-.58-.67-1.06-.17-.52-.25-1.24-.25-2.16v-36.08h7.4c1.02,0,1.97.17,2.82.51.84.33,1.62.89,2.31,1.67.71.78,1.33,1.83,1.85,3.12.53,1.32.98,2.96,1.33,4.88l.06.34h1.29l-1.29-12.25h-36.09l-1.29,12.25h1.29l.06-.34c.35-1.93.8-3.57,1.33-4.88.52-1.29,1.14-2.34,1.85-3.12.69-.77,1.47-1.33,2.31-1.67.85-.34,1.8-.51,2.82-.51h7.4v36.08c0,.92-.08,1.64-.25,2.16Z"/>
      <path class="cls-1" d="M379.59,144.31c-.15.48-.38.84-.67,1.06-.3.24-.68.39-1.13.46-.5.08-1.08.12-1.74.12h-.41v1.31h34.75l1.31-10.45h-1.28l-.07.32c-.66,2.97-1.54,5.15-2.59,6.48-1.03,1.29-2.51,1.92-4.52,1.92h-18.82v-21.9h14.32c.91,0,1.64.08,2.16.25.48.15.83.38,1.06.67.24.3.39.68.46,1.13.08.5.12,1.09.12,1.74v.41h1.31v-10.15h-1.31v.41c0,.66-.04,1.24-.12,1.74-.07.45-.22.83-.46,1.13-.23.3-.58.52-1.06.67-.52.17-1.25.25-2.16.25h-14.32v-15.83h17.62c2.01,0,3.48.63,4.52,1.92,1.06,1.33,1.93,3.51,2.59,6.47l.07.32h1.28l-1.3-10.45h-33.54v1.31h.41c.66,0,1.24.04,1.74.12.45.07.83.22,1.13.46.29.23.52.59.67,1.06.17.52.25,1.24.25,2.16v32.71c0,.91-.08,1.64-.25,2.16Z"/>
      <path class="cls-1" d="M428.6,107.29c.15-.48.38-.84.67-1.06.31-.24.68-.39,1.13-.46.5-.08,1.08-.12,1.74-.12h.41v-1.31h-12.97v1.31h.41c.66,0,1.24.04,1.74.12.45.07.83.22,1.13.46.29.23.52.59.67,1.06.17.52.25,1.24.25,2.16v32.71c0,.91-.08,1.64-.25,2.16-.15.48-.38.84-.67,1.06-.3.24-.67.39-1.13.46-.5.08-1.08.12-1.74.12h-.41v1.31h33.54l1.31-10.45h-1.28l-.07.32c-.66,2.97-1.54,5.15-2.59,6.48-1.03,1.29-2.51,1.92-4.52,1.92h-17.62v-36.08c0-.91.08-1.64.25-2.16Z"/>
      <path class="cls-1" d="M207.86,218.25c-.74-.11-1.43-.35-2.03-.72-.61-.37-1.21-.94-1.77-1.7-.58-.77-1.19-1.85-1.8-3.19l-24.48-54.28-.11-.24h-1.22l-24.25,54.55c-.5,1.33-1.06,2.39-1.66,3.15-.59.75-1.24,1.32-1.93,1.69-.7.38-1.46.62-2.26.73-.83.11-1.74.17-2.69.17h-.41v1.51h14.4v-1.51h-.41c-.95,0-1.77-.06-2.42-.17-.57-.09-.97-.3-1.19-.61-.22-.3-.27-.8-.14-1.49.14-.76.49-1.83,1.05-3.17l6.12-13.84h28.7l6.25,13.84c.61,1.39.97,2.48,1.08,3.24.09.68.01,1.17-.25,1.48-.27.32-.73.51-1.37.59-.72.08-1.57.12-2.53.12h-.41v1.51h18.78v-1.51h-.41c-.96,0-1.83-.06-2.6-.17ZM161.55,197.03l13.36-30.09,13.53,30.09h-26.89Z"/>
      <path class="cls-1" d="M256.26,181.88c-2.22-1.69-4.82-2.94-7.75-3.71-2.91-.77-6.04-1.15-9.3-1.15h-18.03v1.31h.41c.66,0,1.24.04,1.74.12.45.07.83.22,1.13.46.29.23.52.59.67,1.06.17.52.25,1.24.25,2.16v32.71c0,.91-.08,1.64-.25,2.16-.15.48-.38.84-.67,1.06-.3.24-.67.39-1.13.46-.5.08-1.08.12-1.74.12h-.41v1.31h18.03c3.27,0,6.4-.39,9.3-1.16,2.92-.77,5.53-2.02,7.75-3.71,2.22-1.69,4.02-3.93,5.32-6.64,1.3-2.71,1.96-6.05,1.96-9.95s-.66-7.24-1.97-9.95c-1.31-2.71-3.1-4.95-5.32-6.64ZM257.28,207.25c-1.01,2.48-2.41,4.54-4.16,6.13-1.75,1.6-3.84,2.81-6.22,3.61-2.39.8-5.02,1.21-7.8,1.21h-9.15v-39.45h9.15c2.78,0,5.41.41,7.8,1.21,2.38.8,4.47,2.01,6.22,3.61,1.75,1.6,3.15,3.65,4.16,6.1,1.02,2.46,1.53,5.42,1.53,8.8s-.52,6.29-1.53,8.77Z"/>
      <path class="cls-1" d="M305.95,178.33h.41c.66,0,1.22.04,1.68.12.37.06.61.19.75.39.14.21.18.54.12.97-.08.5-.33,1.22-.75,2.15l-14.19,31.89-15.36-31.9c-.46-.96-.72-1.7-.77-2.21-.05-.44.01-.76.17-.95.17-.2.46-.32.88-.37.49-.06,1.08-.09,1.76-.09h.41v-1.31h-13.63v1.31h.41c.66,0,1.25.04,1.77.12.48.07.94.24,1.35.49.41.25.82.64,1.21,1.16.4.54.84,1.29,1.31,2.22l18.34,38,.11.23h1.01l17-38.24c.42-.93.85-1.66,1.27-2.17.41-.5.85-.89,1.31-1.17.45-.27.94-.44,1.47-.51.56-.08,1.18-.12,1.84-.12h.41v-1.31h-10.27v1.31Z"/>
      <path class="cls-1" d="M323.69,178.33h.41c.66,0,1.24.04,1.74.12.45.07.83.22,1.13.46.29.23.52.59.67,1.06.17.52.25,1.24.25,2.16v32.71c0,.91-.08,1.64-.25,2.16-.15.48-.38.84-.67,1.06-.3.24-.68.39-1.13.46-.5.08-1.08.12-1.74.12h-.41v1.31h12.97v-1.31h-.41c-.66,0-1.24-.04-1.74-.12-.46-.07-.83-.22-1.13-.46-.29-.23-.52-.58-.67-1.06-.17-.52-.25-1.24-.25-2.16v-32.71c0-.91.08-1.64.25-2.16.15-.48.38-.84.67-1.06.31-.24.68-.39,1.13-.46.5-.08,1.08-.12,1.74-.12h.41v-1.31h-12.97v1.31Z"/>
      <path class="cls-1" d="M375.64,200.47c-1.37-.9-2.96-1.65-4.72-2.24-1.74-.58-3.54-1.14-5.37-1.66-1.82-.52-3.6-1.05-5.34-1.59-1.71-.53-3.24-1.18-4.55-1.92-1.29-.73-2.35-1.64-3.15-2.72-.78-1.04-1.18-2.36-1.18-3.9s.34-2.92,1.01-3.95c.68-1.05,1.56-1.89,2.6-2.52,1.05-.63,2.24-1.08,3.53-1.33,1.31-.25,2.57-.38,3.74-.38,2.33,0,4.25.38,5.7,1.13,1.47.75,2.72,1.77,3.75,3.02,1.03,1.27,1.92,2.75,2.65,4.41.73,1.68,1.53,3.46,2.38,5.27l.11.24h1.54l-1.83-9.93-.08-.18c-1.36-1.73-3.22-3.12-5.54-4.15-2.31-1.02-5.23-1.54-8.67-1.54-1.5,0-3.15.16-4.91.49-1.78.33-3.44.91-4.93,1.73-1.51.83-2.79,1.97-3.81,3.4-1.03,1.45-1.55,3.3-1.55,5.5,0,1.96.45,3.63,1.33,4.98.87,1.33,2.01,2.46,3.4,3.36,1.37.9,2.96,1.65,4.72,2.24,1.76.59,3.57,1.14,5.37,1.66,1.82.52,3.6,1.05,5.34,1.59,1.71.53,3.24,1.18,4.55,1.92,1.29.73,2.35,1.64,3.15,2.72.78,1.04,1.18,2.35,1.18,3.9,0,1.87-.39,3.39-1.16,4.52-.78,1.14-1.78,2.04-2.98,2.66-1.21.64-2.57,1.07-4.04,1.28-1.49.22-2.95.33-4.33.33-1.98,0-3.89-.38-5.67-1.14-1.8-.76-3.45-1.79-4.91-3.06-1.47-1.27-2.73-2.74-3.77-4.39-1.04-1.65-1.84-3.39-2.39-5.19l-.09-.29h-1.56l1.21,8.71.02.14.1.1c.89.86,2.05,1.71,3.44,2.52,1.36.8,2.84,1.53,4.38,2.16,1.53.62,3.11,1.14,4.72,1.55,1.61.41,3.13.61,4.52.61,1.7,0,3.55-.19,5.49-.58,1.96-.39,3.79-1.04,5.44-1.94,1.67-.9,3.08-2.12,4.19-3.6,1.13-1.51,1.71-3.39,1.71-5.6,0-1.96-.45-3.63-1.33-4.98-.87-1.32-2.01-2.45-3.4-3.37Z"/>
      <path class="cls-1" d="M426.71,182.49c-1.96-1.91-4.31-3.42-6.99-4.48-2.68-1.06-5.63-1.59-8.75-1.59s-6.07.54-8.75,1.59c-2.68,1.06-5.04,2.56-6.99,4.48-1.95,1.91-3.51,4.25-4.63,6.96-1.12,2.7-1.68,5.74-1.68,9.03s.57,6.33,1.68,9.03c1.12,2.7,2.68,5.04,4.63,6.96,1.95,1.91,4.31,3.42,6.99,4.48,2.68,1.06,5.63,1.59,8.75,1.59s6.07-.54,8.75-1.59c2.69-1.06,5.04-2.56,6.99-4.48,1.95-1.91,3.51-4.25,4.63-6.96,1.12-2.71,1.69-5.74,1.69-9.03s-.57-6.32-1.69-9.03c-1.12-2.71-2.68-5.05-4.63-6.96ZM427.05,206.34c-.82,2.46-2,4.65-3.5,6.48-1.5,1.83-3.33,3.3-5.46,4.37-2.11,1.07-4.51,1.61-7.12,1.61s-5-.54-7.12-1.61c-2.12-1.07-3.96-2.54-5.46-4.37-1.51-1.84-2.69-4.02-3.51-6.48-.82-2.47-1.24-5.12-1.24-7.86s.42-5.45,1.24-7.9c.82-2.44,2-4.62,3.51-6.45,1.5-1.83,3.33-3.3,5.46-4.37,2.12-1.07,4.51-1.61,7.12-1.61s5,.54,7.12,1.61c2.12,1.07,3.96,2.54,5.46,4.37,1.5,1.84,2.68,4.01,3.5,6.45.82,2.45,1.24,5.11,1.24,7.9s-.42,5.39-1.24,7.86Z"/>
      <path class="cls-1" d="M478.22,218.45c-.7-.11-1.4-.33-2.06-.63-.66-.3-1.31-.72-1.92-1.23-.6-.51-1.14-1.17-1.6-1.97l-10.95-18.4c4.83-.25,8.56-1.06,11.09-2.42,2.74-1.47,4.13-3.8,4.13-6.92,0-3.61-1.58-6.18-4.69-7.65-3.01-1.42-7.46-2.16-13.22-2.2h-18.03v1.31h.41c.66,0,1.24.04,1.74.12.45.07.83.22,1.13.46.29.23.52.59.67,1.06.17.52.25,1.24.25,2.16v32.71c0,.91-.08,1.64-.25,2.16-.15.48-.38.84-.67,1.06-.3.24-.68.39-1.13.46-.5.08-1.08.12-1.74.12h-.41v1.31h12.97v-1.31h-.41c-.66,0-1.24-.04-1.74-.12-.46-.07-.83-.22-1.13-.46-.29-.23-.52-.58-.67-1.06-.17-.52-.25-1.24-.25-2.16v-18.53h6.44l14.07,23.63h10.45v-1.31h-.41c-.65,0-1.35-.06-2.07-.18ZM449.74,194.58v-15.83h8.72c2.64,0,4.87.2,6.64.59,1.75.39,3.17.94,4.22,1.63,1.03.67,1.76,1.51,2.19,2.49.44,1.01.66,2.15.66,3.41,0,1.09-.22,2.13-.65,3.07-.43.93-1.17,1.74-2.2,2.41-1.06.69-2.48,1.24-4.22,1.63-1.76.39-4,.59-6.64.59h-8.72Z"/>
      <path class="cls-1" d="M520.19,203.84c-.87-1.32-2.01-2.45-3.4-3.37-1.37-.9-2.96-1.65-4.72-2.24-1.74-.58-3.54-1.14-5.37-1.66-1.82-.52-3.6-1.05-5.34-1.59-1.71-.53-3.24-1.18-4.55-1.92-1.29-.73-2.34-1.64-3.15-2.72-.78-1.04-1.18-2.36-1.18-3.9s.34-2.92,1.01-3.95c.68-1.05,1.56-1.89,2.6-2.52,1.05-.63,2.24-1.08,3.53-1.33,1.31-.25,2.57-.38,3.74-.38,2.33,0,4.24.38,5.7,1.13,1.46.75,2.72,1.77,3.75,3.02,1.03,1.27,1.92,2.75,2.65,4.41.73,1.68,1.53,3.46,2.38,5.27l.11.24h1.54l-1.83-9.93-.08-.18c-1.36-1.73-3.22-3.12-5.54-4.15-2.31-1.02-5.23-1.54-8.67-1.54-1.5,0-3.15.16-4.92.49-1.78.33-3.44.91-4.93,1.73-1.51.83-2.79,1.97-3.81,3.4-1.03,1.45-1.55,3.3-1.55,5.5,0,1.96.45,3.63,1.33,4.98.87,1.33,2.01,2.46,3.4,3.36,1.37.9,2.96,1.65,4.72,2.24,1.76.59,3.57,1.14,5.37,1.66,1.82.52,3.6,1.05,5.34,1.59,1.71.53,3.24,1.18,4.55,1.92,1.29.73,2.34,1.64,3.15,2.72.78,1.04,1.18,2.35,1.18,3.9,0,1.87-.39,3.39-1.16,4.52-.78,1.14-1.78,2.04-2.98,2.66-1.21.64-2.58,1.07-4.04,1.28-1.49.22-2.95.33-4.33.33-1.98,0-3.89-.38-5.67-1.14-1.8-.76-3.45-1.79-4.91-3.06-1.47-1.27-2.73-2.74-3.77-4.39-1.04-1.65-1.84-3.39-2.39-5.19l-.09-.29h-1.56l1.21,8.71.02.14.1.1c.89.86,2.05,1.71,3.44,2.52,1.36.8,2.84,1.53,4.38,2.16,1.53.62,3.11,1.14,4.72,1.55,1.61.41,3.13.61,4.52.61,1.7,0,3.55-.19,5.49-.58,1.96-.39,3.79-1.04,5.44-1.94,1.67-.9,3.08-2.12,4.19-3.6,1.13-1.51,1.71-3.39,1.71-5.6,0-1.96-.45-3.63-1.33-4.98Z"/>
    </g>
  </g>
</svg>