<?xml version="1.0" encoding="utf-8"?>
<!-- Generator: Adobe Illustrator 23.0.1, SVG Export Plug-In . SVG Version: 6.00 Build 0)  -->
<svg version="1.1" id="Layer_1" xmlns="http://www.w3.org/2000/svg" xmlns:xlink="http://www.w3.org/1999/xlink" x="0px" y="0px"
	 viewBox="0 0 500.9 239.5" style="enable-background:new 0 0 500.9 239.5;" xml:space="preserve">
<style type="text/css">
	.st0{fill:#273691;}
	.st1{fill-rule:evenodd;clip-rule:evenodd;fill:#93ADFF;}
	.st2{fill-rule:evenodd;clip-rule:evenodd;fill:#1212B5;}
	.st3{fill-rule:evenodd;clip-rule:evenodd;fill:#86E3FF;}
	.st4{fill-rule:evenodd;clip-rule:evenodd;fill:#AA86FF;}
	.st5{fill-rule:evenodd;clip-rule:evenodd;fill:#7AB2E8;}
</style>
<g>
	<path class="st0" d="M110.6,150.3v55.8h-6.2v-27H48.3v27h-6.1v-55.8h6.1V173h56.1v-22.7H110.6z"/>
	<path class="st0" d="M128.5,167.2c0-2.4,0.5-4.6,1.5-6.6c1-2.1,2.3-3.9,3.9-5.4c1.6-1.5,3.5-2.7,5.7-3.5c2.1-0.9,4.4-1.3,6.8-1.3
		h37.8c2.4,0,4.6,0.4,6.7,1.3c2.1,0.9,4,2.1,5.6,3.7c1.6,1.6,2.9,3.4,3.9,5.4c1,2.1,1.4,4.3,1.4,6.6c0,2.4-0.5,4.7-1.4,6.7
		c-1,2.1-2.3,3.9-3.9,5.4c-1.7,1.5-3.6,2.7-5.7,3.6c-2.1,0.9-4.4,1.3-6.8,1.3h-49.2v7.7c0.2,1.4,0.7,2.6,1.4,3.5
		c0.7,1,1.6,1.8,2.7,2.4c1.1,0.6,2.3,1.1,3.6,1.4c1.3,0.3,2.7,0.4,4.1,0.4h51.1v6.1h-51.5c-2,0-4.1-0.3-6.2-1
		c-2.1-0.6-3.9-1.6-5.6-2.7c-1.7-1.2-3-2.6-4.1-4.3s-1.6-3.7-1.7-5.9L128.5,167.2L128.5,167.2z M146.5,156.5c-1.2,0-2.5,0.3-3.9,0.8
		s-2.7,1.3-3.9,2.2s-2.2,2.1-2.9,3.4c-0.8,1.3-1.2,2.8-1.2,4.3v11.2h49.6c1.5,0,3-0.3,4.3-0.8c1.4-0.6,2.6-1.3,3.7-2.3
		c1.1-1,1.9-2.1,2.5-3.5c0.6-1.3,0.9-2.8,0.9-4.3c0-1.6-0.3-3-1-4.3c-0.6-1.3-1.5-2.5-2.6-3.5s-2.4-1.7-3.8-2.3
		c-1.4-0.6-2.9-0.8-4.5-0.8L146.5,156.5L146.5,156.5z"/>
	<path class="st0" d="M220.9,150.3v32.9c0,2.4,0.4,4.6,1.3,6.6c0.9,2,2.1,3.8,3.6,5.3c1.6,1.6,3.3,2.8,5.4,3.7
		c2,0.9,4.2,1.3,6.5,1.3h47v6.1h-47c-3.2,0-6.1-0.6-8.9-1.8c-2.8-1.2-5.2-2.9-7.3-5c-2-2-3.7-4.4-4.9-7.2s-1.8-5.8-1.8-9v-32.9
		L220.9,150.3L220.9,150.3z"/>
	<path class="st0" d="M350.7,206.1h-53.2V200h53.2c1.3,0,2.5-0.2,3.6-0.7s2.1-1.2,3-2c0.9-0.9,1.5-1.9,2-3s0.7-2.3,0.7-3.6
		s-0.2-2.5-0.7-3.7s-1.1-2.2-2-3c-0.8-0.9-1.8-1.5-3-2s-2.4-0.7-3.7-0.7h-40.8c-2.1,0-4.1-0.4-6-1.2s-3.5-1.9-5-3.3
		c-1.4-1.4-2.5-3-3.3-4.9s-1.2-3.9-1.2-6s0.4-4.1,1.2-6s1.9-3.5,3.3-4.9s3-2.5,4.9-3.3s3.9-1.2,6-1.2h53.2v6.1h-53.2
		c-1.3,0-2.6,0.3-3.7,0.8s-2.1,1.2-2.9,1.9c-0.8,0.8-1.5,1.7-2,2.9c-0.5,1.1-0.8,2.3-0.8,3.6c0.2,2.7,1.2,4.9,2.9,6.8
		c1.7,1.8,3.9,2.7,6.4,2.7h40.8c2.1,0,4.2,0.4,6,1.2c1.9,0.8,3.5,1.9,4.9,3.3c1.4,1.4,2.5,3,3.3,4.9s1.2,3.9,1.2,6s-0.4,4.2-1.2,6
		c-0.8,1.9-1.9,3.5-3.3,5c-1.4,1.4-3,2.5-4.9,3.3C354.8,205.7,352.8,206.1,350.7,206.1z"/>
	<path class="st0" d="M384.1,167.2c0-2.4,0.5-4.6,1.5-6.6c1-2.1,2.3-3.9,3.9-5.4s3.5-2.7,5.7-3.5c2.1-0.9,4.4-1.3,6.8-1.3h37.7
		c2.4,0,4.6,0.4,6.7,1.3s4,2.1,5.6,3.7c1.6,1.6,2.9,3.4,3.9,5.4c1,2.1,1.4,4.3,1.4,6.6c0,2.4-0.5,4.7-1.4,6.7
		c-1,2.1-2.3,3.9-3.9,5.4c-1.7,1.5-3.6,2.7-5.7,3.6c-2.1,0.9-4.4,1.3-6.8,1.3h-49.3v7.7c0.2,1.4,0.7,2.6,1.4,3.5
		c0.7,1,1.6,1.8,2.7,2.4c1.1,0.6,2.3,1.1,3.6,1.4c1.3,0.3,2.7,0.4,4.1,0.4h51.1v6.1h-51.5c-2,0-4.1-0.3-6.2-1
		c-2.1-0.6-3.9-1.6-5.6-2.7c-1.7-1.2-3-2.6-4.1-4.3s-1.6-3.7-1.7-5.9L384.1,167.2L384.1,167.2z M402,156.5c-1.2,0-2.5,0.3-3.9,0.8
		s-2.7,1.3-3.9,2.2c-1.2,0.9-2.2,2.1-2.9,3.4c-0.8,1.3-1.2,2.8-1.2,4.3v11.2h49.5c1.5,0,3-0.3,4.3-0.8c1.4-0.6,2.6-1.3,3.7-2.3
		s1.9-2.1,2.5-3.5c0.6-1.3,0.9-2.8,0.9-4.3c0-1.6-0.3-3-1-4.3c-0.6-1.3-1.5-2.5-2.6-3.5s-2.4-1.7-3.8-2.3s-2.9-0.8-4.5-0.8
		L402,156.5L402,156.5z"/>
</g>
<path class="st1" d="M245.2,52.5c5.8,0,10.6-4.7,10.6-10.6c0-5.8-4.7-10.6-10.6-10.6c-5.8,0-10.6,4.7-10.6,10.6
	C234.7,47.8,239.4,52.5,245.2,52.5z"/>
<path class="st2" d="M271.3,52.5c5.8,0,10.6-4.7,10.6-10.6c0-5.8-4.7-10.6-10.6-10.6c-5.8,0-10.6,4.7-10.6,10.6
	S265.5,52.5,271.3,52.5z"/>
<path class="st2" d="M255.8,68c0,5.8-4.7,10.6-10.6,10.6c-5.8,0-10.6-4.7-10.6-10.6c0-5.8,4.7-10.6,10.6-10.6S255.8,62.2,255.8,68z"
	/>
<path class="st3" d="M281.8,68c0,5.8-4.7,10.6-10.6,10.6c-5.8,0-10.6-4.7-10.6-10.6c0-5.8,4.7-10.6,10.6-10.6
	C277.1,57.4,281.8,62.2,281.8,68z"/>
<path class="st4" d="M245.2,104.6c5.8,0,10.6-4.7,10.6-10.6c0-5.8-4.7-10.6-10.6-10.6c-5.8,0-10.6,4.7-10.6,10.6
	C234.7,99.8,239.4,104.6,245.2,104.6z"/>
<path class="st3" d="M271.3,104.6c5.8,0,10.6-4.7,10.6-10.6c0-5.8-4.7-10.6-10.6-10.6c-5.8,0-10.6,4.7-10.6,10.6
	C260.7,99.8,265.5,104.6,271.3,104.6z"/>
<path class="st1" d="M255.8,120c0,5.8-4.7,10.6-10.6,10.6c-5.8,0-10.6-4.7-10.6-10.6c0-5.8,4.7-10.6,10.6-10.6
	C251.1,109.5,255.8,114.2,255.8,120z"/>
<path class="st3" d="M281.8,120c0,5.8-4.7,10.6-10.6,10.6c-5.8,0-10.6-4.7-10.6-10.6c0-5.8,4.7-10.6,10.6-10.6
	C277.1,109.5,281.8,114.2,281.8,120z"/>
<path class="st5" d="M307.9,68c0,5.8-4.7,10.6-10.6,10.6c-5.8,0-10.6-4.7-10.6-10.6c0-5.8,4.7-10.6,10.6-10.6
	C303.1,57.4,307.9,62.2,307.9,68z"/>
<path class="st4" d="M307.9,94c0,5.8-4.7,10.6-10.6,10.6c-5.8,0-10.6-4.7-10.6-10.6c0-5.8,4.7-10.6,10.6-10.6
	C303.1,83.5,307.9,88.2,307.9,94z"/>
<path class="st4" d="M219.2,78.6c-5.8,0-10.6-4.7-10.6-10.6c0-5.8,4.7-10.6,10.6-10.6c5.8,0,10.6,4.7,10.6,10.6
	C229.8,73.8,225.1,78.6,219.2,78.6z"/>
<path class="st3" d="M219.2,104.6c-5.8,0-10.6-4.7-10.6-10.6c0-5.8,4.7-10.6,10.6-10.6c5.8,0,10.6,4.7,10.6,10.6
	S225.1,104.6,219.2,104.6z"/>
</svg>
