<svg xmlns="http://www.w3.org/2000/svg" viewBox="0 0 783.84 200.55">
  <defs>
    <style>
      .a {
        fill: #666a6a;
      }

      .b {
        fill: #a0ddfb;
      }

      .c {
        fill: #a3b8f9;
      }

      .d {
        fill: #93a9f5;
      }

      .e {
        fill: #8b9cd1;
      }

      .f {
        fill: #fff;
      }

      .g {
        fill: #89fb90;
      }
    </style>
  </defs>
  <g>
    <g>
      <path class="a" d="M264.14,233.4v66.72H323V233.4h14.86V388.57H323V317.5H264.14v71.07H249.27V233.4Z" transform="translate(-28.03 -215.77)"/>
      <path class="a" d="M439.88,233.4v17.38H377.61v49.34h58.05V317.5H377.61v53.69h62.74v17.38H362.74V233.4Z" transform="translate(-28.03 -215.77)"/>
      <path class="a" d="M536.61,377.16q-11.42,14.89-32.54,14.89-21.6,0-33.72-14.24T458.22,332.5V233.4h14.87v99.1q0,20.87,8,31.62t23,10.76q14.23,0,21.67-10.76t7.43-31.62V233.4H548v99.1Q548,362.28,536.61,377.16Z" transform="translate(-28.03 -215.77)"/>
      <path class="a" d="M608.08,233.4q25.81,0,39.74,18.25t13.92,55.64A171.65,171.65,0,0,1,658.61,342q-3.12,15.12-9.7,25.43a44.51,44.51,0,0,1-16.74,15.76q-10.17,5.43-24.09,5.43H569.74V233.4Zm1.25,137.79a44.19,44.19,0,0,0,6.26-.55,27.09,27.09,0,0,0,8-2.61,34.49,34.49,0,0,0,8.37-6,36.54,36.54,0,0,0,7.43-10.65,72.87,72.87,0,0,0,5.4-16.84,121.36,121.36,0,0,0,2.11-24.45,142.17,142.17,0,0,0-2-24.89,57.23,57.23,0,0,0-6.41-18.69A31.12,31.12,0,0,0,627,254.8q-7.05-4-17.37-4h-25V371.19Z" transform="translate(-28.03 -215.77)"/>
      <path class="a" d="M694.6,233.4V388.57H679.73V233.4Z" transform="translate(-28.03 -215.77)"/>
      <path class="a" d="M768.21,233.4l43.66,155.17H795.44l-12.21-46.72H736l-12.52,46.72H708.29L751.78,233.4Zm10.33,91.06-18.62-72.37h-.31l-18.94,72.37Z" transform="translate(-28.03 -215.77)"/>
    </g>
    <path class="b" d="M212,309.06c34.09-14.1,6.16-40.42,17.42-79.82.89-4.62,3.73-8.43,2.74-9.41s-2.09-.52-7.56.06c-41.39,5.84-56.89-18.21-81.43,10.27-7.59,17.94-6.58,48.63,6.65,59.9C155.18,308,190.77,314.63,212,309.06Z" transform="translate(-28.03 -215.77)"/>
    <path class="c" d="M134.8,397.49c17.52,35.39,43,3.45,85.26,12.44,4.92.59,9.15,3.34,10.11,2.2s.37-2.28-.67-8.08c-9.41-43.85,14.64-62.3-17.24-86.36-19.45-6.72-51.62-3.26-62.42,11.78C131.4,336.65,127.27,375.25,134.8,397.49Z" transform="translate(-28.03 -215.77)"/>
    <path class="d" d="M48.22,317.82C12.93,334,43.06,361.33,32.53,403.91c-.77,5-3.64,9.14-2.56,10.16s2.21.49,7.91-.31c43.21-7.56,60.23,17.73,85-13.57,7.37-19.46,5.33-52.31-8.91-64C107.76,317.14,70.24,311.19,48.22,317.82Z" transform="translate(-28.03 -215.77)"/>
    <path class="e" d="M121.75,236.24C107.58,202,81.09,230,41.45,218.73,36.8,217.84,33,215,32,216s-.52,2.1.07,7.58c5.86,41.53-18.35,57.07,10.3,81.7,18,7.61,48.92,6.62,60.27-6.66C120.69,293.19,127.35,257.49,121.75,236.24Z" transform="translate(-28.03 -215.77)"/>
    <g>
      <path class="f" d="M141.39,305.3a2,2,0,0,1-1.31-.47,1.69,1.69,0,0,1-.11-2.52l56.67-56.82a2,2,0,0,1,2.73-.1,1.71,1.71,0,0,1,.11,2.53l-56.66,56.81A2,2,0,0,1,141.39,305.3Z" transform="translate(-28.03 -215.77)"/>
      <path class="f" d="M155.41,306.52a1.67,1.67,0,0,1-.56-3.25l28.64-10.1a1.67,1.67,0,1,1,1.11,3.16L156,306.43A1.76,1.76,0,0,1,155.41,306.52Z" transform="translate(-28.03 -215.77)"/>
      <path class="f" d="M145.18,285.31a1.79,1.79,0,0,1-.77-.19,1.67,1.67,0,0,1-.71-2.26l12.05-23.11A1.66,1.66,0,0,1,158,259a1.68,1.68,0,0,1,.72,2.26l-12.05,23.11A1.68,1.68,0,0,1,145.18,285.31Z" transform="translate(-28.03 -215.77)"/>
    </g>
    <g>
      <path class="f" d="M196,385.62a1.66,1.66,0,0,1-1.23-.54l-49.06-53.22a1.68,1.68,0,0,1,2.47-2.27l49.05,53.22a1.68,1.68,0,0,1-1.23,2.81Z" transform="translate(-28.03 -215.77)"/>
      <path class="f" d="M152.36,366.31a1.66,1.66,0,0,1-1.61-1.25L143,335.7a1.68,1.68,0,0,1,3.24-.86L154,364.21a1.67,1.67,0,0,1-1.19,2A1.59,1.59,0,0,1,152.36,366.31Z" transform="translate(-28.03 -215.77)"/>
      <path class="f" d="M181.61,337a1.53,1.53,0,0,1-.91-.12l-23.95-10.27a1.67,1.67,0,1,1,1.31-3.07L182,333.79a1.67,1.67,0,0,1-.4,3.19Z" transform="translate(-28.03 -215.77)"/>
    </g>
    <g>
      <path class="f" d="M64.62,379.74a1.67,1.67,0,0,1-1.18-2.86l51.42-50.94a1.67,1.67,0,0,1,2.35,2.38L65.8,379.26A1.7,1.7,0,0,1,64.62,379.74Z" transform="translate(-28.03 -215.77)"/>
      <path class="f" d="M78,331.53a1.67,1.67,0,0,1-.49-3.27l29.07-8.8a1.67,1.67,0,1,1,1,3.2l-29.07,8.8A1.59,1.59,0,0,1,78,331.53Z" transform="translate(-28.03 -215.77)"/>
      <path class="f" d="M105.1,365.59a1.59,1.59,0,0,1-.84-.23,1.68,1.68,0,0,1-.61-2.29l15.66-22.54a1.67,1.67,0,1,1,2.89,1.68l-15.65,22.54A1.68,1.68,0,0,1,105.1,365.59Z" transform="translate(-28.03 -215.77)"/>
    </g>
    <g>
      <path class="f" d="M118.17,301.09a1.65,1.65,0,0,1-1.15-.46L64.62,250.7a1.68,1.68,0,1,1,2.31-2.43l52.4,49.93a1.68,1.68,0,0,1,0,2.37A1.65,1.65,0,0,1,118.17,301.09Z" transform="translate(-28.03 -215.77)"/>
      <path class="f" d="M114.61,288.61a1.66,1.66,0,0,1-1.58-1.15l-9.63-28.8a1.67,1.67,0,0,1,3.17-1.06l9.63,28.81a1.67,1.67,0,0,1-1,2.11A1.7,1.7,0,0,1,114.61,288.61Z" transform="translate(-28.03 -215.77)"/>
      <path class="f" d="M98.89,300.35a1.77,1.77,0,0,1-.82,0l-24.9-7.68a1.67,1.67,0,0,1,1-3.2l24.91,7.68a1.67,1.67,0,0,1-.17,3.24Z" transform="translate(-28.03 -215.77)"/>
    </g>
    <circle class="f" cx="101.35" cy="93.88" r="30.57"/>
    <g>
      <path class="g" d="M217.88,311.4s-28.75-12.13-65.62-12.13h-8.82v-13c0-33.71-14.74-65.62-14.74-65.62S115,249.44,115,286.31v13h-8.82c-33.7,0-65.62,13.18-65.62,13.18a257.12,257.12,0,0,0,65.62,8.48H115v11.46C115,366.1,129.75,398,129.75,398s13.69-28.75,13.69-65.62V320.93h8.82C186,320.93,217.88,311.4,217.88,311.4Z" transform="translate(-28.03 -215.77)"/>
      <path class="f" d="M129.73,401l-1.15-2.49c-.15-.32-14.87-32.56-14.87-66.16V322.22h-7.53a261.32,261.32,0,0,1-66-8.53l-3.5-1,3.37-1.4c.32-.13,32.54-13.28,66.11-13.28h7.53V286.31a171.31,171.31,0,0,1,13.82-66.17l1.18-2.48,1.16,2.49c.14.32,14.86,32.56,14.86,66.16V298h7.53a189.73,189.73,0,0,1,66.12,12.23l3.31,1.4-3.44,1c-.32.1-32.48,9.59-66,9.59h-7.53v10.17a171.31,171.31,0,0,1-13.82,66.17ZM44.78,312.23a265.46,265.46,0,0,0,61.4,7.41h10.11v12.75c0,27.44,10,54,13.47,62.37a171.16,171.16,0,0,0,12.39-62.37V319.64h10.11c26.46,0,52.06-6,61.47-8.44a190.76,190.76,0,0,0-61.47-10.64H142.15V286.31c0-27.44-10-54-13.46-62.37a171.1,171.1,0,0,0-12.4,62.37v14.25H106.18C79.74,300.56,54.13,308.85,44.78,312.23Z" transform="translate(-28.03 -215.77)"/>
    </g>
    <path d="M46.67,230.85" transform="translate(-28.03 -215.77)"/>
    <g>
      <g>
        <ellipse class="f" cx="102.46" cy="78.29" rx="1.69" ry="12.72"/>
        <path class="f" d="M130.49,307.26c-2.06,0-2.17-11-2.17-13.2s.11-13.2,2.17-13.2,2.17,11,2.17,13.2S132.55,307.26,130.49,307.26Zm0-25.3c-.53,1-1.2,5.43-1.2,12.1s.67,11.12,1.2,12.1c.53-1,1.2-5.44,1.2-12.1S131,282.93,130.49,282Z" transform="translate(-28.03 -215.77)"/>
      </g>
      <g>
        <path class="f" d="M130.49,307.19c-2.05,0-2.1-11.79-2.1-13.13s.05-13.14,2.1-13.14,2.1,11.79,2.1,13.14S132.53,307.19,130.49,307.19Zm0-25.36c-.55.77-1.27,5.28-1.27,12.23s.72,11.46,1.27,12.23c.54-.77,1.27-5.29,1.27-12.23S131,282.6,130.49,281.83Z" transform="translate(-28.03 -215.77)"/>
        <path class="f" d="M130.49,307.68c-2.14,0-2.59-7.41-2.59-13.62s.45-13.62,2.59-13.62,2.59,7.4,2.59,13.62S132.63,307.68,130.49,307.68Zm0-24.28a73.23,73.23,0,0,0,0,21.32,73.23,73.23,0,0,0,0-21.32Z" transform="translate(-28.03 -215.77)"/>
      </g>
    </g>
    <g>
      <g>
        <ellipse class="f" cx="120.96" cy="96.56" rx="12.72" ry="1.77"/>
        <path class="f" d="M149,314.59c-2.21,0-13.2-.11-13.2-2.25s11-2.26,13.2-2.26,13.2.11,13.2,2.26S151.19,314.59,149,314.59Zm-12.14-2.25c.86.56,5.35,1.29,12.14,1.29s11.27-.73,12.14-1.29c-.87-.56-5.35-1.29-12.14-1.29S137.71,311.78,136.85,312.34Z" transform="translate(-28.03 -215.77)"/>
      </g>
      <g>
        <path class="f" d="M149,314.55c-1.35,0-13.14-.06-13.14-2.21s11.79-2.22,13.14-2.22,13.13.06,13.13,2.22S150.33,314.55,149,314.55Zm-12.23-2.21c.77.57,5.28,1.33,12.23,1.33s11.46-.76,12.23-1.33c-.77-.58-5.29-1.34-12.23-1.34S137.53,311.76,136.76,312.34Z" transform="translate(-28.03 -215.77)"/>
        <path class="f" d="M149,315c-6.21,0-13.62-.46-13.62-2.69s7.41-2.7,13.62-2.7,13.62.47,13.62,2.7S155.2,315,149,315Zm-10.77-2.69a54.28,54.28,0,0,0,10.77.85,54.45,54.45,0,0,0,10.77-.85,53.66,53.66,0,0,0-10.77-.85A53.5,53.5,0,0,0,138.22,312.34Z" transform="translate(-28.03 -215.77)"/>
      </g>
    </g>
    <g>
      <g>
        <ellipse class="f" cx="102.46" cy="113.26" rx="1.69" ry="12.72"/>
        <path class="f" d="M130.49,342.23c-2.06,0-2.17-11-2.17-13.2s.11-13.2,2.17-13.2,2.17,11,2.17,13.2S132.55,342.23,130.49,342.23Zm0-25.3c-.53,1-1.2,5.43-1.2,12.1s.67,11.12,1.2,12.1c.53-1,1.2-5.44,1.2-12.1S131,317.9,130.49,316.93Z" transform="translate(-28.03 -215.77)"/>
      </g>
      <g>
        <path class="f" d="M130.49,342.16c-2.05,0-2.1-11.79-2.1-13.13s.05-13.14,2.1-13.14,2.1,11.79,2.1,13.14S132.53,342.16,130.49,342.16Zm0-25.36c-.55.77-1.27,5.28-1.27,12.23s.72,11.46,1.27,12.23c.54-.77,1.27-5.29,1.27-12.23S131,317.57,130.49,316.8Z" transform="translate(-28.03 -215.77)"/>
        <path class="f" d="M130.49,342.65c-2.14,0-2.59-7.41-2.59-13.62s.45-13.62,2.59-13.62,2.59,7.4,2.59,13.62S132.63,342.65,130.49,342.65Zm0-24.28a73.23,73.23,0,0,0,0,21.32,73.23,73.23,0,0,0,0-21.32Z" transform="translate(-28.03 -215.77)"/>
      </g>
    </g>
    <g>
      <g>
        <ellipse class="f" cx="84.45" cy="96.56" rx="12.72" ry="1.77"/>
        <path class="f" d="M112.48,314.59c-2.21,0-13.2-.11-13.2-2.25s11-2.26,13.2-2.26,13.19.11,13.19,2.26S114.68,314.59,112.48,314.59Zm-12.14-2.25c.86.56,5.35,1.29,12.14,1.29s11.27-.73,12.13-1.29c-.86-.56-5.35-1.29-12.13-1.29S101.2,311.78,100.34,312.34Z" transform="translate(-28.03 -215.77)"/>
      </g>
      <g>
        <path class="f" d="M112.47,314.55c-1.34,0-13.13-.06-13.13-2.21s11.79-2.22,13.13-2.22,13.14.06,13.14,2.22S113.82,314.55,112.47,314.55Zm-12.22-2.21c.76.57,5.28,1.33,12.22,1.33s11.47-.76,12.24-1.33c-.77-.58-5.29-1.34-12.24-1.34S101,311.76,100.25,312.34Z" transform="translate(-28.03 -215.77)"/>
        <path class="f" d="M112.48,315c-6.22,0-13.62-.46-13.62-2.69s7.4-2.7,13.62-2.7,13.61.47,13.61,2.7S118.69,315,112.48,315Zm-10.77-2.69a54.28,54.28,0,0,0,10.77.85,54.45,54.45,0,0,0,10.77-.85,53.66,53.66,0,0,0-10.77-.85A53.5,53.5,0,0,0,101.71,312.34Z" transform="translate(-28.03 -215.77)"/>
      </g>
    </g>
  </g>
</svg>
