<svg id="Layer_1" data-name="Layer 1" xmlns="http://www.w3.org/2000/svg" viewBox="0 0 209.92 42.72"><path d="M115.32,244.68c-6-.09-10.87,4.82-11.63,11-.88,7.05,3.15,11,8.94,11.12,6.5.08,10.91-5,11.66-11.16.8-6.51-2.76-10.87-9-10.95m4.44,11.2c-.58,4.7-3.1,8.1-6.67,8.1-3.06,0-5.58-2.94-4.87-8.48.59-4.87,3.53-8.06,6.76-8.06,4.07,0,5.29,4.16,4.78,8.44" transform="translate(-78.21 -234.31)" fill="#fff"/><path d="M146.53,264.14a.34.34,0,0,0-.25-.41c-1.22-.13-2.56-.05-2.18-3.28s.79-6.33,1.13-9.14c.59-4.49-1.34-6.72-4.95-6.63-3,.08-6.21,2.26-8,5.74h-.08c.08-.71.13-1.42.21-2.14.08-2.18-.8-3.6-3-3.6-2.47,0-4,1.88-4.11,2.6a.32.32,0,0,0,.29.42c1.14.08,2.48,0,2.1,3.06-.59,4.57-1.47,11.58-1.93,15.27,0,.17.08.21.17.21a7.91,7.91,0,0,0,2.1.25,9.12,9.12,0,0,0,2-.25.24.24,0,0,0,.25-.21l1-8.1c.67-5.49,4.11-9.81,6.8-10,1.59-.09,2.93.92,2.51,4.45l-1.25,10.28c-.34,2.56.75,4.07,3,4.07,2.47,0,4.07-1.93,4.15-2.61" transform="translate(-78.21 -234.31)" fill="#fff"/><path d="M154.34,241a3.42,3.42,0,0,0,3.35-2.77,2.51,2.51,0,0,0-2.68-2.68,3.33,3.33,0,0,0-3.32,2.68,2.5,2.5,0,0,0,2.65,2.77" transform="translate(-78.21 -234.31)" fill="#fff"/><path d="M155.85,245.18a8.08,8.08,0,0,0-2.06-.25,9.44,9.44,0,0,0-2,.25.26.26,0,0,0-.26.21l-2.68,22c-.51,4.11-.88,7-4.28,7-1.34,0-2.18-.67-2.73-.67a.41.41,0,0,0-.46.42c-.17,1.09,2.14,2.86,4.7,2.86,5.2,0,6.5-3.7,7.09-8.52L156,245.39c.05-.17-.08-.21-.16-.21" transform="translate(-78.21 -234.31)" fill="#fff"/><path d="M168.35,244.68c-6-.09-10.87,4.82-11.62,11-.88,7.05,3.14,11,8.93,11.12,6.51.08,10.91-5,11.67-11.16.8-6.51-2.77-10.87-9-10.95m4.45,11.2c-.59,4.7-3.11,8.1-6.67,8.1-3.07,0-5.58-2.94-4.87-8.48.59-4.87,3.52-8.06,6.75-8.06,4.07,0,5.29,4.16,4.79,8.44" transform="translate(-78.21 -234.31)" fill="#fff"/><path d="M199,245.18a7.73,7.73,0,0,0-2-.21,10.75,10.75,0,0,0-2.13.21c-.09,0-.17,0-.17.21l-1,8.1c-.71,5.66-4.11,9.82-6.76,9.94-1.59.09-3-.88-2.56-4.4l1.26-10.2c.3-2.6-.84-4.11-3.1-4.11-2.48,0-4,1.93-4.11,2.64a.32.32,0,0,0,.29.42c1.13.08,2.52,0,2.14,3.19L179.72,260c-.59,4.53,1.34,6.76,5,6.67,3-.08,6.13-2.14,7.93-5.66h.13l-.71,5.66C191.55,271,189,274,184.75,274c-4.36,0-5.7-2.6-6.62-2.6a.4.4,0,0,0-.38.38c-.17,1.34,2,5.29,7.89,5.29,6,0,10.11-4,11-10.79l2.56-20.85a.19.19,0,0,0-.17-.21" transform="translate(-78.21 -234.31)" fill="#fff"/><path d="M203.76,260.91a3.4,3.4,0,0,0-3.36,2.94,2.46,2.46,0,0,0,2.65,2.81,3.33,3.33,0,0,0,3.48-2.81,2.58,2.58,0,0,0-2.77-2.94" transform="translate(-78.21 -234.31)" fill="#fff"/><path d="M206.32,234.31a4.42,4.42,0,0,0-4.36,2.9c0,.21,0,.42.29.46.84.21,1.51.29,1.47,3.44-.09,8.81-1.43,16.07.38,16.07s4.15-8.64,5.07-17.5c.3-2.77-.29-5.37-2.85-5.37" transform="translate(-78.21 -234.31)" fill="#fff"/><path d="M86.37,239.78a2.7,2.7,0,0,0-3-2.67c-2.48,0-4,1.88-4.12,2.6a.33.33,0,0,0,.3.42c1.13.08,2.62,0,2.11,3s-1.63,9.7-2,11.56c-2.36,11.6-3.41,12.16,8.62,12.12,10,0,12.86-4,13.59-6.85,1.19-4.72-.94-9.11-4.31-10l0-.17s4.22-2.17,4.84-6c1-6.43-9-11.22-16.1-4m10.95,4.76a6.51,6.51,0,0,1-3.19,4.52c-3.31-.63-5.93-.08-6.08,1.32-.2,1.79,2.45,2.52,6,1.23,0,0,2.64,1,2.18,5.61A7.71,7.71,0,0,1,89.1,264c-7,.52-6-.92-4.62-8.2.77-4.08,1.8-10.52,2.65-13a5,5,0,0,1,5.13-3.8,4.87,4.87,0,0,1,5.06,5.55" transform="translate(-78.21 -234.31)" fill="#fff"/><polygon points="134.43 0.92 132.93 0.92 132.93 0.21 136.76 0.21 136.76 0.92 135.27 0.92 135.27 4.73 134.43 4.73 134.43 0.92" fill="#fff"/><polygon points="141.55 4.73 141.54 1.74 140.06 4.21 139.68 4.21 138.2 1.77 138.2 4.73 137.4 4.73 137.4 0.21 138.09 0.21 139.88 3.21 141.64 0.21 142.33 0.21 142.34 4.73 141.55 4.73" fill="#fff"/><path d="M263.57,260.67h1.72a3.58,3.58,0,0,1,.83.09,1.79,1.79,0,0,1,.64.29,1.24,1.24,0,0,1,.4.48,1.58,1.58,0,0,1,.15.71,1.64,1.64,0,0,1-.16.73,1.35,1.35,0,0,1-.43.49,2,2,0,0,1-.65.29,3.62,3.62,0,0,1-.82.09h-.89v2.48h-.79Zm.79,2.5h.83a2.89,2.89,0,0,0,.53-.05,1.6,1.6,0,0,0,.42-.16.75.75,0,0,0,.27-.29.81.81,0,0,0,.1-.43.87.87,0,0,0-.1-.42.81.81,0,0,0-.27-.28,1.06,1.06,0,0,0-.41-.15,2.87,2.87,0,0,0-.52-.05h-.85Z" transform="translate(-78.21 -234.31)" fill="#fff"/><path d="M267.9,263q0-.24,0-.42h.71a2.92,2.92,0,0,1,0,.33c0,.12,0,.23,0,.31h0a1.27,1.27,0,0,1,1.15-.75.87.87,0,0,1,.3,0l0,.69a1.34,1.34,0,0,0-.35,0,1,1,0,0,0-.47.1,1,1,0,0,0-.33.27,1,1,0,0,0-.19.38,1.43,1.43,0,0,0-.07.46v2h-.75V263" transform="translate(-78.21 -234.31)" fill="#fff"/><path d="M274.47,264.42a2,2,0,0,1-.58,1.44,2,2,0,0,1-.65.41,2.16,2.16,0,0,1-.81.15,2.11,2.11,0,0,1-.8-.15,1.89,1.89,0,0,1-.65-.41,2.12,2.12,0,0,1-.43-2.24A2.13,2.13,0,0,1,271,263a2.06,2.06,0,0,1,.65-.41,2.11,2.11,0,0,1,.8-.15,2.11,2.11,0,0,1,1.46.56,2.13,2.13,0,0,1,.43.63,2.07,2.07,0,0,1,.15.8m-.78,0a1.7,1.7,0,0,0-.08-.51,1.36,1.36,0,0,0-.25-.44,1.14,1.14,0,0,0-.39-.29,1.19,1.19,0,0,0-.54-.12,1.13,1.13,0,0,0-.54.12,1.13,1.13,0,0,0-.64.73,1.44,1.44,0,0,0-.09.51,1.5,1.5,0,0,0,.09.52,1.26,1.26,0,0,0,.24.44,1.35,1.35,0,0,0,.4.3,1.27,1.27,0,0,0,.54.11,1.33,1.33,0,0,0,.54-.11,1.31,1.31,0,0,0,.39-.3,1.48,1.48,0,0,0,.25-.44,1.77,1.77,0,0,0,.08-.52" transform="translate(-78.21 -234.31)" fill="#fff"/><path d="M277.36,263.15h-1v2a.78.78,0,0,0,.13.49.51.51,0,0,0,.41.15l.22,0,.22-.07,0,.62-.3.07a1.87,1.87,0,0,1-.34,0,1.09,1.09,0,0,1-.82-.3,1.25,1.25,0,0,1-.28-.88v-2.05h-.72v-.61h.72v-1.09h.74v1.09h1Z" transform="translate(-78.21 -234.31)" fill="#fff"/><path d="M281.66,264.4v.12a.53.53,0,0,1,0,.13h-3a1,1,0,0,0,.11.45,1,1,0,0,0,.26.36,1.11,1.11,0,0,0,.39.24,1.23,1.23,0,0,0,.47.09,1.3,1.3,0,0,0,.66-.17,1.42,1.42,0,0,0,.44-.4l.52.42a1.89,1.89,0,0,1-.71.59,2.12,2.12,0,0,1-.91.19,2.28,2.28,0,0,1-.8-.14,1.81,1.81,0,0,1-.63-.41,1.77,1.77,0,0,1-.41-.62,2,2,0,0,1-.16-.81,2.09,2.09,0,0,1,.15-.81,2,2,0,0,1,.41-.64,2.08,2.08,0,0,1,.63-.41,1.92,1.92,0,0,1,.77-.15,2,2,0,0,1,.75.14,1.56,1.56,0,0,1,.58.39,1.66,1.66,0,0,1,.36.62,2.31,2.31,0,0,1,.13.82m-.76-.31a1.42,1.42,0,0,0-.08-.42.9.9,0,0,0-.2-.34,1,1,0,0,0-.33-.22,1.06,1.06,0,0,0-.45-.09,1.32,1.32,0,0,0-.82.31,1.46,1.46,0,0,0-.26.34,1.19,1.19,0,0,0-.11.42Z" transform="translate(-78.21 -234.31)" fill="#fff"/><path d="M283.57,261.17a.45.45,0,0,1-.14.35.51.51,0,0,1-.35.13.45.45,0,0,1-.35-.14.42.42,0,0,1-.14-.34.44.44,0,0,1,.14-.34.48.48,0,0,1,.35-.14.52.52,0,0,1,.35.14.44.44,0,0,1,.14.34m-.11,5.15h-.75v-3.78h.75Z" transform="translate(-78.21 -234.31)" fill="#fff"/><path d="M285.44,262.54a2.88,2.88,0,0,1,0,.32c0,.12,0,.22,0,.3h0a.87.87,0,0,1,.19-.28,1.61,1.61,0,0,1,.28-.24,2.17,2.17,0,0,1,.35-.15,1.39,1.39,0,0,1,.4-.06,1.47,1.47,0,0,1,.63.13,1.22,1.22,0,0,1,.44.33,1.4,1.4,0,0,1,.26.48,2,2,0,0,1,.08.6v2.35h-.75v-2.1a3,3,0,0,0,0-.44,1.08,1.08,0,0,0-.13-.37.72.72,0,0,0-.27-.25.88.88,0,0,0-.43-.1.94.94,0,0,0-.73.34,1.43,1.43,0,0,0-.28.91v2h-.75v-3c0-.1,0-.23,0-.39s0-.3,0-.42Z" transform="translate(-78.21 -234.31)" fill="#fff"/><path d="M210.35,265.72v.6h-.73v-6h.75v2.81h0a1.53,1.53,0,0,1,.53-.47,1.62,1.62,0,0,1,.81-.2,1.93,1.93,0,0,1,.77.16,1.67,1.67,0,0,1,.59.42,1.86,1.86,0,0,1,.39.63,2.21,2.21,0,0,1,.14.78,2.25,2.25,0,0,1-.14.78,2,2,0,0,1-.38.64,1.71,1.71,0,0,1-.6.42,1.8,1.8,0,0,1-.79.16,1.74,1.74,0,0,1-.77-.18,1.48,1.48,0,0,1-.59-.52Zm2.51-1.3a1.81,1.81,0,0,0-.08-.51,1.22,1.22,0,0,0-.63-.73,1.2,1.2,0,0,0-.55-.12,1.11,1.11,0,0,0-.52.12,1.08,1.08,0,0,0-.4.3,1.18,1.18,0,0,0-.26.43,1.55,1.55,0,0,0,0,1,1.18,1.18,0,0,0,.26.43,1.2,1.2,0,0,0,.4.3,1.24,1.24,0,0,0,.52.11,1.2,1.2,0,0,0,.55-.12,1.14,1.14,0,0,0,.39-.3,1.18,1.18,0,0,0,.24-.44,1.7,1.7,0,0,0,.08-.51" transform="translate(-78.21 -234.31)" fill="#fff"/><path d="M216.11,265.5h0l1-3h.8l-1.84,4.67a3.45,3.45,0,0,1-.2.43,1.16,1.16,0,0,1-.27.31,1,1,0,0,1-.35.21,1.43,1.43,0,0,1-.48.07h-.25l-.25-.05.08-.66a1.21,1.21,0,0,0,.37.07.56.56,0,0,0,.44-.17,1.75,1.75,0,0,0,.26-.46l.24-.63-1.62-3.78h.84Z" transform="translate(-78.21 -234.31)" fill="#fff"/><path d="M226.62,263.12a3.31,3.31,0,0,1-.91,2.4,3.73,3.73,0,0,1-2.8.94,3.62,3.62,0,0,1-2.73-.9,3.43,3.43,0,0,1-.86-2.44v-7h2.27v7a1.69,1.69,0,0,0,.35,1.12,1.82,1.82,0,0,0,2.34,0,2.27,2.27,0,0,0,.37-1.43v-6.66h2Z" transform="translate(-78.21 -234.31)" fill="#fff"/><polygon points="157.07 32 156.09 32 151.43 26.14 151.43 32 149.27 32 149.27 21.83 150.26 21.83 154.91 27.66 154.91 21.83 157.07 21.83 157.07 32" fill="#fff"/><path d="M235.65,267.13c-.16.55-.42,1.51-1.47,1.51-.35,0-.73-.25-.73-.5,0-.1.07-.18.13-.18s.2.08.35.08a.83.83,0,0,0,.85-.78.8.8,0,0,0-.9-.87,1,1,0,0,0-1,1.1,1.31,1.31,0,0,0,1.34,1.38c1.36,0,2.79-1.49,3.16-2.77l2.51-9.78h1.21l.06-.23h-4l0,.23h1.31Z" transform="translate(-78.21 -234.31)" fill="#fff"/><path d="M249.78,256.09h-2.84l-.05.23h.32c.92,0,1,.12,1,.39a9.94,9.94,0,0,1-.35,1.47l-1.67,5.67a2.89,2.89,0,0,1-3.25,2.46c-1.12,0-1.85-.53-1.85-1.68a24.81,24.81,0,0,1,.94-3.85l1.28-4.46h1.21l.06-.23h-4l-.06.23h1.31l-1.19,4.34a35.39,35.39,0,0,0-.86,3.61c0,1.56,1.46,2.28,3.11,2.28a3.18,3.18,0,0,0,3.54-2.62l2-6.94c.19-.66.55-.67,1.24-.67Z" transform="translate(-78.21 -234.31)" fill="#fff"/><path d="M252.3,256.32h1.43c1,0,1.26.58,1.26,1.16,0,1.4-.82,3.46-2.31,3.46H251Zm-5.4,10h3.87l.06-.23h-1.27l1.39-4.91h1.48c.62,0,1,.25,1,.87,0,.44-.57,2.53-.57,2.95a1.42,1.42,0,0,0,1.49,1.41,1.66,1.66,0,0,0,1.36-.86l-.21-.1a1.11,1.11,0,0,1-1,.61c-.32,0-.36-.22-.36-.38,0-.56.48-2,.48-2.86a1.77,1.77,0,0,0-1.61-1.7v0c1.48-.23,3.3-1.09,3.3-3a2,2,0,0,0-2.29-2h-4.53l0,.23h1.31l-2.74,9.76H247Z" transform="translate(-78.21 -234.31)" fill="#fff" fill-rule="evenodd"/><path d="M259.24,256.32h1.19l.06-.23h-3.66l-.06.23h1.11l.41,5.68-1.18,4.08H256l-.06.23h3.87l.06-.23h-1.27l1.11-4,4-5.43a.75.75,0,0,1,.72-.35h.11l.06-.23h-2.26l-.06.23h.2c.41,0,.92,0,.92.17s-.19.44-.46.83l-3.27,4.48h0Z" transform="translate(-78.21 -234.31)" fill="#fff"/><path d="M266.49,257.36a.75.75,0,0,1-.53.22.75.75,0,0,1-.76-.76.71.71,0,0,1,.24-.55.76.76,0,0,1,1.28.55.74.74,0,0,1-.23.54m-1-1a.6.6,0,0,0-.18.44.64.64,0,0,0,.18.45.6.6,0,0,0,.44.18.58.58,0,0,0,.44-.19.6.6,0,0,0,0-.88.6.6,0,0,0-.88,0m.11.86v-.84H266l.16,0a.22.22,0,0,1,.11.21.17.17,0,0,1-.05.15.25.25,0,0,1-.15.05l.12,0a.22.22,0,0,1,.07.19v.15h-.21s0-.07,0-.12a.25.25,0,0,0,0-.1A.09.09,0,0,0,266,257l-.08,0h-.09v.3Zm.4-.67a.24.24,0,0,0-.13,0h0v.24h.09a.16.16,0,0,0,.11,0,.11.11,0,0,0,.05-.1.08.08,0,0,0-.07-.09" transform="translate(-78.21 -234.31)" fill="#fff"/></svg>