<svg xmlns="http://www.w3.org/2000/svg" xmlns:xlink="http://www.w3.org/1999/xlink" width="300" height="74.1" viewBox="0 0 300 74.1">
  <defs>
    <linearGradient id="linear-gradient" x1="0.5" y1="1" x2="0.5" gradientUnits="objectBoundingBox">
      <stop offset="0" stop-color="#0d6095"/>
      <stop offset="0.343" stop-color="#1a5589"/>
      <stop offset="1" stop-color="#00324a"/>
    </linearGradient>
    <linearGradient id="linear-gradient-5" x1="0.548" y1="1.063" x2="0.465" y2="0.092" gradientUnits="objectBoundingBox">
      <stop offset="0.374" stop-color="#fff"/>
      <stop offset="0.439" stop-color="#d1dce2"/>
      <stop offset="0.586" stop-color="#5f869a"/>
      <stop offset="0.648" stop-color="#2d617b"/>
    </linearGradient>
  </defs>
  <g id="Group_12" data-name="Group 12" transform="translate(0)">
    <g id="Group_9" data-name="Group 9" transform="translate(120.147 17.684)">
      <g id="MAKO" transform="translate(0 0)">
        <path id="Path_14" data-name="Path 14" d="M2639.509,553.446l5.8-17.508-15.51,17.508h-8.479l-5.241-17.508-5.8,17.508h-8.423l9.29-28.022h16.344l4.955,16.857,15.015-16.857h14.392l-9.29,28.022Z" transform="translate(-2601.855 -524.512)" fill="url(#linear-gradient)"/>
        <path id="Path_15" data-name="Path 15" d="M3562.909,553.446l-.825-5.083h-14l-4.14,5.083h-8.981l.115-.348,24.291-27.675h13.276l4.6,27.675-.115.348Zm-2.645-20.289-8.407,10.384h9.483Z" transform="translate(-3483.785 -524.512)" fill="url(#linear-gradient)"/>
        <path id="Path_16" data-name="Path 16" d="M4337.706,553.446l-6.724-10.34c-.48-.739-.966-.956-2.194-.956l-3.744,11.3h-13.109l9.29-28.022h13.109l-4.321,13.034,18.378-13.034h10.431l-.129.391-17.953,11.079L4352.1,553.1l-.115.348Z" transform="translate(-4218.144 -524.512)" fill="url(#linear-gradient)"/>
        <path id="Path_17" data-name="Path 17" d="M5072.065,538.636c-12.217,0-20.09-5.865-17.08-14.945,2.981-8.993,14.758-14.9,26.975-14.9s20.075,5.909,17.094,14.9C5096.044,532.771,5084.282,538.636,5072.065,538.636Zm8.7-26.241c-4.463,0-9.331,4.084-11.405,10.34-2.044,6.169-1.952,11.947,4.017,11.947s9.948-5.778,11.993-11.947C5087.443,516.479,5085.228,512.395,5080.765,512.395Z" transform="translate(-4919.834 -508.789)" fill="url(#linear-gradient)"/>
      </g>
      <g id="MEDICAL" transform="translate(20.788 34.488)">
        <path id="Path_18" data-name="Path 18" d="M2998.511,1158.593l2.749-8.232-7.294,8.232H2990l-2.424-8.232-2.749,8.232h-3.945l4.4-13.175h7.654l2.291,7.925,7.061-7.925h6.74l-4.4,13.175Z" transform="translate(-2980.878 -1144.989)" fill="#ae0000"/>
        <path id="Path_19" data-name="Path 19" d="M3503.381,1158.593H3490.4l4.4-13.175h12.069l.517,2.206-.055.163h-7.184l-.989,2.962h7.184l-.777,2.329h-7.184l-1.05,3.146h8.124l-.054.163Z" transform="translate(-3462.453 -1144.989)" fill="#ae0000"/>
        <path id="Path_20" data-name="Path 20" d="M3815.149,1158.593h-8.594l4.4-13.175h8.595c4.807,0,9.274,1.8,7.773,6.291S3820.086,1158.593,3815.149,1158.593Zm2.608-11.173h-1.384l-3.062,9.171h1.384c2.743,0,5.113-1.307,6.361-5.045C3822,1148.707,3820.5,1147.42,3817.757,1147.42Z" transform="translate(-3761.27 -1144.989)" fill="#ae0000"/>
        <path id="Path_21" data-name="Path 21" d="M4197.872,1158.593l4.4-13.175h6.113l-4.4,13.175Z" transform="translate(-4131.125 -1144.989)" fill="#ae0000"/>
        <path id="Path_22" data-name="Path 22" d="M4412.582,1151.63c-5.982,0-9.847-2.819-8.442-7.027,1.412-4.228,7.146-7.006,13.128-7.006a10.315,10.315,0,0,1,6.464,1.851l-2.337,2a7.555,7.555,0,0,0-4.452-1.621c-4.049,0-5.555,3.023-6.141,4.78-.594,1.777-1.086,4.739,2.963,4.739a13.372,13.372,0,0,0,5.453-1.528l1.06,2.025A16.522,16.522,0,0,1,4412.582,1151.63Z" transform="translate(-4325.807 -1137.597)" fill="#ae0000"/>
        <path id="Path_23" data-name="Path 23" d="M4735.653,1158.593l-.377-2.39h-6.557l-1.947,2.39h-4.206l.055-.163,11.424-13.011h6.217l2.108,13.011-.055.163Zm-1.2-9.539-3.955,4.882h4.441Z" transform="translate(-4627.041 -1144.989)" fill="#ae0000"/>
        <path id="Path_24" data-name="Path 24" d="M5142.207,1158.593h-11.651l4.4-13.175h6.113l-3.608,10.805h6.792l-.055.163Z" transform="translate(-5012.655 -1144.989)" fill="#ae0000"/>
      </g>
    </g>
    <g id="Group_11" data-name="Group 11" transform="translate(0)">
      <g id="Group_10" data-name="Group 10">
        <g id="GRADUATED_TONE" data-name="GRADUATED TONE" transform="translate(6.413 20.289)">
          <g id="Group_8" data-name="Group 8">
            <path id="Path_25" data-name="Path 25" d="M352.653,592.237c-.108.027-.105.028-.257.056h0c7.089,5.436,11.674,9.326,19.282,15.98l-29.985-13.255c-.032-.012-.061,0-.094-.014-.976.2-1.954.4-2.94.574a7.975,7.975,0,0,0-4.212-5.218,6.073,6.073,0,0,1,1.775,2.742,4.236,4.236,0,0,1,.212,1.589,2.706,2.706,0,0,1-.464,1.325c-.305.046-.677.137-.97.149a7.683,7.683,0,0,0-4.327-5.347,4.715,4.715,0,0,1,1.576,5.7c-.393.046-.847.1-1.242.137a6.524,6.524,0,0,0-3.93-5.292,3.714,3.714,0,0,1,1.492,2.508,5.046,5.046,0,0,1-.671,3.055c-1.132.086-2.383.191-3.523.243-.37.017-.743.022-1.112.035a88.027,88.027,0,0,1-28.6-3.776l.468-.181c22.73-11.074,45.927-19.211,70.641-21.646a76.7,76.7,0,0,0-13.112.252l-.107.024a114.087,114.087,0,0,1,18.7-15.6,40.647,40.647,0,0,0-2.624,8.515,7.8,7.8,0,0,0,.211,4.713,3.856,3.856,0,0,0,.569.87h0a3.742,3.742,0,0,0,.6.5,4.694,4.694,0,0,0,1.925.717,10.153,10.153,0,0,0,1.575.092l3.444-.086c8.108-.39,16.224-.435,24.329-.068A181.2,181.2,0,0,1,352.653,592.237Z" transform="translate(-294.662 -556.278)" fill="url(#linear-gradient-5)"/>
          </g>
        </g>
        <g id="SHARK">
          <path id="Path_26" data-name="Path 26" d="M683.115,1234.649a3.086,3.086,0,0,0,3.081,2.126,2.958,2.958,0,0,0,3.155-2.708,2.345,2.345,0,0,0-.051-.481Z" transform="translate(-655.397 -1176.149)" fill="#111e28"/>
          <path id="Path_27" data-name="Path 27" d="M265.011,260.453h0c-.7-.6-5.677-5.125-10.189-8.934l-4.936-4.167a94.006,94.006,0,0,0,22.106-8.745,19.355,19.355,0,0,0,3.52,2.985l1.944-6.269c17.865-11.635,30.284-29.048,33.425-48.971-.326,1.169-.717,2.365-1.161,3.576a59.431,59.431,0,0,1-26.02,29.747q-.361.219-.708.392l-.192.092c-1.251.583-2.309.676-2.887.141-.769-.712-.495-2.36.552-4.239a57.289,57.289,0,0,0-5.6,4.459q-4.4-.046-8.735,0l-3.588-.043a3.157,3.157,0,0,1-.658-.149,1.676,1.676,0,0,1-.208-.065c-1.167-.448-1.7-2.037-1.489-3.952,0-.026,0-.052,0-.078a12.531,12.531,0,0,1,.39-2.522,51.668,51.668,0,0,1,4.189-11.5q-.209.087-.414.18l-.01.007a83.371,83.371,0,0,0-26.278,20.25q-4.218.571-8.7,1.506a54.888,54.888,0,0,1,.721-8.3,48.876,48.876,0,0,0-14.676,11.9,224.648,224.648,0,0,0-37.683,15.629l-.008,0a.442.442,0,0,0,.1.168c.877.986,11.163,5.869,19.008,6.8-.139.894-.694,2.065-.832,2.954a118.907,118.907,0,0,0,37.516-.833c.625.283,1.937.787,2.552.986,2.842.919,4.823,1.736,7.957,2.809,7.88,2.7,12.394,2.757,20.973,4.177m-22.878-17.86c-.108.027-.123.031-.275.059,7.077,5.436,11.709,9.331,19.3,15.985l-29.969-13.252-.1-.037q-1.462.3-2.94.566a8.114,8.114,0,0,0-4.289-5.231,6.219,6.219,0,0,1,1.8,2.772,4.237,4.237,0,0,1,.214,1.588,2.678,2.678,0,0,1-.449,1.32q-.457.069-.915.135a7.485,7.485,0,0,0-4.416-5.348,4.976,4.976,0,0,1,1.86,2.752,4.636,4.636,0,0,1-.262,2.962q-.589.069-1.18.132a6.605,6.605,0,0,0-4-5.3,3.782,3.782,0,0,1,1.487,2.541,5.028,5.028,0,0,1-.676,3.044q-1.7.13-3.4.208-.554.026-1.107.047a87.84,87.84,0,0,1-28.584-3.743l.467-.181c22.692-11.073,46.553-19.2,70.568-21.65a76.09,76.09,0,0,0-13.081.2,111.041,111.041,0,0,1,18.425-15.4,39.42,39.42,0,0,0-2.539,8.392,7.81,7.81,0,0,0,.211,4.713,3.857,3.857,0,0,0,.568.87,3.739,3.739,0,0,0,.595.5,4.682,4.682,0,0,0,1.922.717,10.127,10.127,0,0,0,1.572.092l3.439-.086q12.143-.585,24.284-.046A180.631,180.631,0,0,1,242.133,242.593Z" transform="translate(-177.733 -186.353)" fill="#111e28"/>
        </g>
      </g>
    </g>
  </g>
</svg>
