<svg id="Layer_1" data-name="Layer 1" xmlns="http://www.w3.org/2000/svg" viewBox="0 0 378.45 80.4"><line x1="61.59" y1="53.92" x2="375.9" y2="53.92" fill="#fff" stroke="#fff" stroke-width="2.53"/><path d="M154.75,71.6h-6.58l-21.39-23v23h-9.89V33.74h9l19.07,20.54V33.74h9.84Z" transform="translate(-29.68 -32.49)" fill="#fff"/><path d="M181.33,71.6h-9.94V41H160.48V33.47h31.65V41h-10.8Z" transform="translate(-29.68 -32.49)" fill="#fff"/><path d="M220.87,71.6H197.59V33.47h24.73V41H207.53v7.29h12.69v7.45H207.53V64h17.66Z" transform="translate(-29.68 -32.49)" fill="#fff"/><path d="M265.75,68.9a41.53,41.53,0,0,1-16.47,3.67c-13.56,0-22.09-8-22.09-19.82,0-10.59,8-20.26,23.49-20.26a39.45,39.45,0,0,1,12.53,2V43a21,21,0,0,0-11.34-3.41c-8.64,0-14.42,5.46-14.42,13,0,6.86,4.59,13.13,13.23,13.13a14.87,14.87,0,0,0,5.78-1.14l.11-7.23h-9l3.89-6.87h14.42Z" transform="translate(-29.68 -32.49)" fill="#fff"/><path d="M307.39,71.6H296.54l-9.73-16.15c-1.89.11-2.16.11-4.32.11v16h-9.72V33.47h17.28c5.95,0,12.21,3.13,12.21,10.64a10.35,10.35,0,0,1-1,4.43,11.21,11.21,0,0,1-4.86,5.13Zm-24.9-16.85-2.64-5.35c1.19,0,8.37,0,9.23-.27a4.32,4.32,0,0,0,3.4-4.32,4,4,0,0,0-1.67-3.4c-1.24-.92-3.08-.92-5.19-.92h-3.13Z" transform="translate(-29.68 -32.49)" fill="#fff"/><path d="M355.36,71.6h-9.94V41H334.51V33.47h31.65V41h-10.8Z" transform="translate(-29.68 -32.49)" fill="#fff"/><path d="M394,71.6H384v-14l-14.1-24.14h11.23l8.21,15,8.27-15h10.53L394,57.61Z" transform="translate(-29.68 -32.49)" fill="#fff"/><path d="M107.26,36.36A4.35,4.35,0,0,1,110,34.1v-.61H92.16v.63a4.37,4.37,0,0,1,2.69,2.27q1.09,1.95,1.09,8V61.28q0,5.44-1.15,7.32A5,5,0,0,1,92.16,71v.62H110v-.63a5.14,5.14,0,0,1-2.63-2.37c-.77-1.25-1.15-3.68-1.15-7.32V44.39C106.17,40.33,106.53,37.66,107.26,36.36Z" transform="translate(-29.68 -32.49)" fill="#fff"/><path d="M326.56,36.36a4.3,4.3,0,0,1,2.69-2.26v-.61H311.46v.63a4.37,4.37,0,0,1,2.69,2.27q1.1,1.95,1.09,8V61.28q0,5.44-1.15,7.31A5.05,5.05,0,0,1,311.46,71v.62h17.79v-.63a5.1,5.1,0,0,1-2.63-2.37c-.77-1.25-1.16-3.68-1.16-7.32V44.39C325.46,40.33,325.83,37.66,326.56,36.36Z" transform="translate(-29.68 -32.49)" fill="#fff"/><path d="M105.14,100h2.58v12.55h-1.86V102.16h0l-4.88,10.41H99.28l-4.87-10.19h0v10.19H92.51V100h2.62l5,10.41Z" transform="translate(-29.68 -32.49)" fill="#fff"/><path d="M120.78,108.92h-6.15l-1.6,3.65h-2L116.7,100h2.13l5.68,12.55h-2.13Zm-3.1-7.18-2.35,5.56h4.76Z" transform="translate(-29.68 -32.49)" fill="#fff"/><path d="M129.78,102.59h0v10h-1.86V100H130l8.07,10h0V100H140v12.55h-2.16Z" transform="translate(-29.68 -32.49)" fill="#fff"/><path d="M153.14,108.92H147l-1.59,3.65h-2L149.06,100h2.13l5.68,12.55h-2.13Zm-3.1-7.18-2.35,5.56h4.76Z" transform="translate(-29.68 -32.49)" fill="#fff"/><path d="M167,105.8h5.77v6.77h-1.34l-.31-1.79a5.84,5.84,0,0,1-4.82,2.11c-5,0-6.63-3.62-6.63-6.38,0-4.86,3.32-6.81,6.58-6.81,2.58,0,5.52.81,6.31,4.28h-2c-.58-1.74-1.88-2.66-4.26-2.66-3.32,0-4.8,2.36-4.8,5,0,3.55,2.27,4.92,4.89,4.92s4.5-1.61,4.7-3.85H167Z" transform="translate(-29.68 -32.49)" fill="#fff"/><path d="M177.48,100h10.09v1.62h-8.23v3.64h8v1.61h-8V111h8.41v1.61H177.48Z" transform="translate(-29.68 -32.49)" fill="#fff"/><path d="M204.5,100h2.58v12.55h-1.86V102.16h0l-4.89,10.41h-1.66l-4.87-10.19h0v10.19h-1.87V100h2.62l5,10.41Z" transform="translate(-29.68 -32.49)" fill="#fff"/><path d="M211.81,100H221.9v1.62h-8.23v3.64h8v1.61h-8V111h8.41v1.61H211.81Z" transform="translate(-29.68 -32.49)" fill="#fff"/><path d="M228.17,102.59h0v10h-1.87V100h2.17l8.07,10h0V100h1.87v12.55h-2.17Z" transform="translate(-29.68 -32.49)" fill="#fff"/><path d="M246.61,101.64h-4.75V100h11.36v1.62h-4.75v10.93h-1.86Z" transform="translate(-29.68 -32.49)" fill="#fff"/><path d="M274.82,104.54c-.28-1.74-1.65-3.22-4.29-3.22-3,0-4.85,1.71-4.85,5.14,0,2.37,1.28,4.81,4.75,4.81a4.1,4.1,0,0,0,4.39-3.5h1.87c-.3,2.78-2.69,5.12-6.28,5.12-3.16,0-6.59-1.74-6.59-6.63,0-3.66,2.28-6.56,6.57-6.56,2.52,0,6,1.08,6.3,4.84Z" transform="translate(-29.68 -32.49)" fill="#fff"/><path d="M287.14,99.7c5.05,0,7,3.38,7,6.6s-1.93,6.59-7,6.59-7-3.37-7-6.59S282.1,99.7,287.14,99.7Zm0,1.62c-2.86,0-5.11,1.65-5.11,5s2.25,5,5.11,5,5.12-1.65,5.12-5S290,101.32,287.14,101.32Z" transform="translate(-29.68 -32.49)" fill="#fff"/><path d="M300.13,102.59h0v10h-1.87V100h2.16l8.07,10h0V100h1.86v12.55H308.2Z" transform="translate(-29.68 -32.49)" fill="#fff"/><path d="M316,108.44c0,2.25,2.15,2.83,4,2.83s3.4-.75,3.4-2.12c0-1.15-.9-1.62-2.34-1.87l-2.85-.47c-1.49-.25-3.73-.85-3.73-3.29,0-2.29,1.82-3.82,5-3.82,2.52,0,5.17.92,5.35,3.94H323c-.15-1-.72-2.32-3.72-2.32-1.38,0-2.92.58-2.92,2.06,0,.77.51,1.39,2.05,1.65l3.08.53c1,.17,3.78.65,3.78,3.22,0,3.2-2.86,4.11-5.4,4.11-2.83,0-5.76-1-5.76-4.45Z" transform="translate(-29.68 -32.49)" fill="#fff"/><path d="M328.87,100h1.86v8c0,2.26,1.51,3.21,3.82,3.21s3.81-1,3.81-3.21v-8h1.87v7.81c0,3.36-1.87,5.06-5.68,5.06s-5.68-1.7-5.68-5.06Z" transform="translate(-29.68 -32.49)" fill="#fff"/><path d="M345,100h1.86V111h7.63v1.61H345Z" transform="translate(-29.68 -32.49)" fill="#fff"/><path d="M359.47,101.64h-4.74V100h11.35v1.62h-4.74v10.93h-1.87Z" transform="translate(-29.68 -32.49)" fill="#fff"/><path d="M369.63,100h1.87v12.55h-1.87Z" transform="translate(-29.68 -32.49)" fill="#fff"/><path d="M378.35,102.59h0v10h-1.87V100h2.16l8.08,10h0V100h1.86v12.55h-2.16Z" transform="translate(-29.68 -32.49)" fill="#fff"/><path d="M400.25,105.8H406v6.77h-1.34l-.31-1.79a5.82,5.82,0,0,1-4.82,2.11c-5,0-6.63-3.62-6.63-6.38,0-4.86,3.32-6.81,6.58-6.81,2.58,0,5.52.81,6.31,4.28h-2c-.58-1.74-1.88-2.66-4.26-2.66-3.32,0-4.79,2.36-4.79,5,0,3.55,2.26,4.92,4.88,4.92s4.5-1.61,4.7-3.85h-4.12Z" transform="translate(-29.68 -32.49)" fill="#fff"/><path d="M35.88,44a8.33,8.33,0,0,0-.67-1.37c-1.47-2.27-3-2.31-5.53-2.6V37.82H69V40c-2.55.29-4.06.33-5.52,2.6A7.6,7.6,0,0,0,62.83,44Z" transform="translate(-29.68 -32.49)" fill="#fff"/><rect x="7.7" y="15.85" width="5.01" height="48.79" fill="#fff"/><rect x="17.31" y="15.85" width="5.01" height="48.79" fill="#fff"/><rect x="26.91" y="15.85" width="5.01" height="48.79" fill="#fff"/><path d="M36,101.58a8.87,8.87,0,0,1-.67,1.38c-1.47,2.27-3,2.3-5.53,2.6v2.22H69.14v-2.22c-2.55-.3-4.06-.33-5.52-2.6a8.06,8.06,0,0,1-.67-1.38Z" transform="translate(-29.68 -32.49)" fill="#fff"/></svg>