<?xml version="1.0" encoding="utf-8"?>
<!-- Generator: Adobe Illustrator 26.5.0, SVG Export Plug-In . SVG Version: 6.00 Build 0)  -->
<svg version="1.1" id="a" xmlns="http://www.w3.org/2000/svg" xmlns:xlink="http://www.w3.org/1999/xlink" x="0px" y="0px"
	 viewBox="0 0 153.6 128.3" style="enable-background:new 0 0 153.6 128.3;" xml:space="preserve">
<style type="text/css">
	.st0{fill:#19F447;}
	.st1{fill:#356473;}
</style>
<path class="st0" d="M33.5,37.6h20c4.9,0,8.4,1.2,10.7,3.5c1.6,1.6,2.5,3.6,2.5,6.3v0.1c0,4.5-2.6,7.2-6,8.7
	c4.7,1.6,7.8,4.2,7.8,9.5v0.1c0,6.7-5.5,10.8-14.8,10.8H33.5C33.5,76.6,33.5,37.6,33.5,37.6z M50.9,53.1c3.3,0,5.1-1.1,5.1-3.4v-0.1
	c0-2.1-1.7-3.3-4.9-3.3h-7v6.9H50.9z M52.4,67.9c3.3,0,5.2-1.3,5.2-3.6v-0.1c0-2.1-1.7-3.5-5.3-3.5h-8.3v7.2H52.4z"/>
<g>
	<g>
		<path class="st1" d="M33.1,35.3V19h3.3c0.7,0,1.2,0.1,1.6,0.3s0.7,0.5,0.9,0.9s0.4,0.9,0.4,1.5c0.1,0.6,0.1,1.2,0.1,1.9v0.3
			c0,1.1-0.1,2-0.3,2.8c-0.2,0.7-0.5,1.3-0.9,1.7c-0.4,0.4-1.1,0.6-1.9,0.6H35v6.4C35,35.3,33.1,35.3,33.1,35.3z M35,27.3h1.2
			c0.4,0,0.7-0.1,0.9-0.3c0.2-0.2,0.3-0.6,0.4-1.1s0.1-1.2,0.1-2v-0.3c0-1.1-0.1-1.8-0.2-2.3s-0.5-0.8-1.1-0.8H35
			C35,20.5,35,27.3,35,27.3z"/>
		<path class="st1" d="M41.4,35.3V19h1.9v16.4H41.4z"/>
		<path class="st1" d="M46.7,35.3V20.6h-1.8V19h5.4v1.6h-1.7v14.8H46.7L46.7,35.3z"/>
		<path class="st1" d="M54.9,35.5c-0.8,0-1.4-0.2-1.9-0.6s-0.8-1-1-1.7c-0.2-0.8-0.3-1.7-0.3-2.7v-6.8c0-0.7,0-1.4,0.1-2
			c0.1-0.6,0.3-1.1,0.5-1.6c0.2-0.4,0.6-0.8,1-1c0.4-0.2,1-0.4,1.6-0.4c0.6,0,1.2,0.1,1.6,0.3c0.4,0.2,0.7,0.5,0.9,1
			s0.4,0.9,0.5,1.5c0.1,0.6,0.1,1.2,0.1,1.9v1.8h-1.9v-1.8c0-1-0.1-1.8-0.2-2.3c-0.1-0.5-0.5-0.8-1-0.8c-0.5,0-0.9,0.3-1.1,0.8
			c-0.2,0.5-0.3,1.3-0.3,2.3v7.1c0,0.8,0,1.4,0.1,1.9c0.1,0.5,0.2,0.8,0.4,1.1s0.5,0.3,0.8,0.3c0.5,0,0.9-0.3,1-0.8
			c0.2-0.5,0.2-1.4,0.2-2.6v-1.8H58v1.8c0,1.1-0.1,2-0.3,2.8c-0.2,0.7-0.5,1.3-1,1.7C56.3,35.3,55.7,35.5,54.9,35.5L54.9,35.5z"/>
		<path class="st1" d="M60.4,35.3V19h1.9v7h2.6v-7h1.9v16.4h-1.9v-7.8h-2.6v7.8H60.4z"/>
	</g>
</g>
<path class="st0" d="M93.2,36.8c-12.1,0-21.1,9.1-21.1,20.3v0.1c0,9.7,6.6,17.7,16.2,19.7c-0.2-0.5-0.3-1.1-0.3-1.7
	c0-2.8,2.3-5.1,5.1-5.1s5.1,2.3,5.1,5.1c0,0.6-0.1,1.2-0.3,1.7c9.5-2.1,16.2-10.2,16.2-19.8V57C114.1,45.8,105.2,36.8,93.2,36.8z
	 M103.1,57.2c0,5.6-4,10.4-9.9,10.4c-5.9,0-10-4.9-10-10.5V57c0-5.6,4-10.4,9.9-10.4c6,0,10,4.9,10,10.5L103.1,57.2L103.1,57.2z"/>
<circle class="st1" cx="93.1" cy="90.3" r="5.1"/>
<circle class="st1" cx="93.1" cy="106.2" r="4.1"/>
<path class="st1" d="M145.3,56.7l12.8-19.1h-12.2l-7,11l-6.5-11.2V0H5v128.3h125.7L130.6,76l8.1-11.2l7.5,11.8h12.4L145.3,56.7
	L145.3,56.7z M98.1,124c-1.4,0-2.6-1.1-2.6-2.6s1.1-2.6,2.6-2.6s2.6,1.1,2.6,2.6S99.5,124,98.1,124z M120.2,74.5v40.3H43.7
	c-13.9,0-25.1-11.2-25.1-25.1v-76h101.6v24l12.2,19.2L120.2,74.5L120.2,74.5z"/>
<path class="st0" d="M140.2,56.7l12.8-19.1h-12.2l-7,11l-6.5-11.2V0H0v128.3h125.7L125.6,76l8.1-11.2l7.5,11.8h12.4L140.2,56.7
	L140.2,56.7z M93.1,124c-1.4,0-2.6-1.1-2.6-2.6s1.1-2.6,2.6-2.6s2.6,1.1,2.6,2.6S94.5,124,93.1,124z M115.2,74.5v40.3H38.7
	c-13.9,0-25.1-11.2-25.1-25.1v-76h101.6v24l12.2,19.2L115.2,74.5L115.2,74.5z"/>
</svg>
