<?xml version="1.0" encoding="utf-8"?>
<!-- Generator: Adobe Illustrator 25.0.1, SVG Export Plug-In . SVG Version: 6.00 Build 0)  -->
<svg version="1.1" id="Layer_1" xmlns="http://www.w3.org/2000/svg" xmlns:xlink="http://www.w3.org/1999/xlink" x="0px" y="0px"
	 viewBox="0 0 1191.6 413.6" style="enable-background:new 0 0 1191.6 413.6;" xml:space="preserve">
<style type="text/css">
	.st0{fill:#FF5900;}
</style>
<g>
	<g>
		<path class="st0" d="M37.8,305.4H55l16,43.7h0.3l15.8-43.7h17.2v61.6H93.4v-49.5h-0.2l-18.7,49.5h-7.7l-18.4-49.5h-0.2v49.5H37.8
			V305.4z"/>
		<path class="st0" d="M114.7,305.4h40.8v9.6h-29.8v15.7h28.3v9.2h-28.3v17.4h31.4v9.7h-42.3V305.4z"/>
		<path class="st0" d="M164.6,305.4h21.8c4,0,8,0.5,12.1,1.6c4.1,1,7.7,2.8,11,5.2c3.2,2.4,5.9,5.6,7.9,9.5c2,3.9,3,8.8,3,14.6
			c0,5.4-1,10-3,13.9c-2,3.9-4.7,7.1-7.9,9.6c-3.3,2.5-6.9,4.3-11,5.5c-4.1,1.2-8.1,1.8-12.1,1.8h-21.8V305.4z M184.7,357.4
			c2.8,0,5.7-0.3,8.5-1c2.8-0.7,5.4-1.8,7.7-3.4c2.3-1.6,4.2-3.8,5.6-6.5c1.4-2.7,2.2-6.2,2.2-10.3c0-4.4-0.7-8-2.2-10.8
			c-1.4-2.8-3.3-5-5.6-6.5c-2.3-1.6-4.9-2.6-7.7-3.2c-2.8-0.6-5.7-0.9-8.5-0.9h-9.1v42.6H184.7z"/>
		<path class="st0" d="M227.9,305.4h11v61.6h-11V305.4z"/>
	</g>
	<g>
		<path class="st0" d="M293.4,319.8c-1.6-2.2-3.7-3.8-6.4-4.8c-2.6-1-5.2-1.5-7.7-1.5c-3.2,0-6.1,0.6-8.7,1.7
			c-2.6,1.2-4.9,2.8-6.7,4.8c-1.9,2-3.3,4.4-4.3,7.1c-1,2.7-1.5,5.7-1.5,8.9c0,3.4,0.5,6.4,1.5,9.2c1,2.8,2.4,5.2,4.2,7.2
			c1.8,2,4,3.6,6.6,4.7c2.5,1.1,5.4,1.7,8.6,1.7c3.3,0,6.2-0.7,8.8-2c2.5-1.3,4.6-3,6.2-5.2l8.8,6.2c-2.7,3.4-6.1,6.1-10,8
			c-3.9,1.9-8.6,2.8-13.8,2.8c-4.8,0-9.2-0.8-13.3-2.4c-4-1.6-7.5-3.8-10.4-6.7c-2.9-2.9-5.2-6.3-6.8-10.3c-1.6-4-2.4-8.4-2.4-13.2
			c0-4.9,0.9-9.4,2.6-13.3c1.7-4,4.1-7.4,7-10.1c3-2.8,6.5-4.9,10.6-6.4c4.1-1.5,8.5-2.3,13.2-2.3c2,0,4,0.2,6.2,0.6
			c2.1,0.4,4.2,1,6.2,1.7c2,0.8,3.8,1.8,5.6,2.9c1.7,1.2,3.2,2.6,4.4,4.2L293.4,319.8z"/>
	</g>
	<g>
		<path class="st0" d="M328.7,305.4h9.5l26.5,61.6h-12.5l-5.7-14.1h-26.7l-5.6,14.1h-12.3L328.7,305.4z M342.6,343.5l-9.5-25
			l-9.7,25H342.6z"/>
	</g>
	<g>
		<path class="st0" d="M368.9,305.4h11v51.8H406v9.7h-37.1V305.4z"/>
		<path class="st0" d="M493,366.9h-37.1c-4.9,0-9.4-0.7-13.4-2.1c-4-1.4-7.5-3.5-10.3-6.2c-2.9-2.7-5.1-6-6.7-9.9s-2.3-8.4-2.3-13.3
			c0-4.7,0.8-9,2.5-12.8c1.7-3.9,4-7.2,6.9-10c3-2.8,6.4-4.9,10.5-6.5c4-1.5,8.4-2.3,13.1-2.3c4.7,0,9,0.8,13,2.3
			c4,1.5,7.5,3.7,10.4,6.5c2.9,2.8,5.2,6.1,6.8,10c1.6,3.9,2.4,8.1,2.4,12.8c0,2.8-0.3,5.3-1,7.7c-0.6,2.3-1.5,4.4-2.5,6.3
			c-1,1.9-2.2,3.5-3.5,5c-1.3,1.4-2.7,2.6-4,3.6v0.2H493V366.9z M456.1,313.6c-3,0-5.7,0.6-8.3,1.7c-2.6,1.1-4.8,2.6-6.7,4.5
			s-3.3,4.2-4.4,6.9c-1.1,2.7-1.6,5.6-1.6,8.7c0,3.3,0.5,6.3,1.5,9c1,2.7,2.4,5,4.3,6.9c1.8,1.9,4,3.4,6.6,4.5s5.4,1.6,8.4,1.6
			c3,0,5.8-0.5,8.4-1.6c2.6-1.1,4.8-2.6,6.7-4.5c1.9-1.9,3.3-4.2,4.4-6.9c1-2.7,1.6-5.7,1.6-9c0-3.1-0.5-6-1.5-8.7
			c-1-2.7-2.4-5-4.2-6.9c-1.8-1.9-4-3.4-6.6-4.5C462.1,314.2,459.2,313.6,456.1,313.6z"/>
		<path class="st0" d="M546.7,344.3c0,3.7-0.6,7.1-1.9,10c-1.3,3-3,5.5-5.2,7.6c-2.2,2.1-4.8,3.7-7.8,4.8c-3,1.1-6.3,1.7-9.8,1.7
			s-6.8-0.6-9.8-1.7c-3-1.1-5.6-2.7-7.9-4.8c-2.2-2.1-4-4.6-5.2-7.6c-1.3-3-1.9-6.3-1.9-10v-39h11v38.5c0,1.8,0.2,3.6,0.7,5.3
			c0.5,1.8,1.2,3.4,2.3,4.7c1.1,1.4,2.5,2.5,4.3,3.4c1.8,0.9,4,1.3,6.6,1.3s4.8-0.4,6.6-1.3c1.8-0.9,3.2-2,4.3-3.4
			c1.1-1.4,1.8-3,2.3-4.7c0.5-1.8,0.7-3.6,0.7-5.3v-38.5h11V344.3z"/>
		<path class="st0" d="M574.7,305.4h9.5l26.5,61.6h-12.5l-5.7-14.1h-26.7l-5.6,14.1h-12.3L574.7,305.4z M588.6,343.5l-9.5-25
			l-9.7,25H588.6z"/>
		<path class="st0" d="M613.7,305.4h11v51.8h26.2v9.7h-37.1V305.4z"/>
		<path class="st0" d="M655,305.4h11v61.6h-11V305.4z"/>
		<path class="st0" d="M688.8,314.9h-18.9v-9.6h48.7v9.6h-18.9v52h-11V314.9z"/>
		<path class="st0" d="M736.4,340.2l-23.1-34.9h13.4l15.5,25.9l15.7-25.9h12.7l-23.1,34.9v26.7h-11V340.2z"/>
		<path class="st0" d="M789,305.4h20.1c3.5,0,6.7,0.3,9.6,1c2.8,0.6,5.3,1.7,7.3,3.1c2,1.4,3.6,3.3,4.7,5.6s1.7,5,1.7,8.2
			c0,3.4-0.6,6.3-1.9,8.6c-1.3,2.3-3,4.2-5.2,5.6c-2.2,1.4-4.7,2.4-7.6,3.1c-2.9,0.6-6,1-9.2,1h-8.4v25.5h-11V305.4z M807.6,332.2
			c1.8,0,3.5-0.1,5.1-0.4s3.1-0.7,4.3-1.4c1.3-0.7,2.3-1.6,3-2.7c0.8-1.2,1.1-2.7,1.1-4.5c0-1.8-0.4-3.3-1.1-4.4
			c-0.8-1.1-1.8-2-3-2.7c-1.3-0.6-2.7-1.1-4.3-1.3c-1.6-0.2-3.2-0.3-4.9-0.3h-8v17.7H807.6z"/>
		<path class="st0" d="M838.9,305.4h21.4c2.9,0,5.7,0.3,8.4,0.9s5.1,1.6,7.3,3c2.1,1.4,3.8,3.2,5.1,5.5c1.3,2.3,1.9,5,1.9,8.3
			c0,4.5-1.3,8.1-3.8,10.9c-2.5,2.8-6,4.7-10.3,5.7l16.4,27.3h-13.2l-14.3-26.1h-8v26.1h-11V305.4z M858.8,331.9
			c1.6,0,3.1-0.1,4.7-0.3c1.6-0.2,3-0.7,4.2-1.3c1.2-0.6,2.3-1.6,3.1-2.7c0.8-1.2,1.2-2.7,1.2-4.6c0-1.7-0.4-3.1-1.1-4.1
			c-0.8-1.1-1.7-1.9-2.9-2.6c-1.2-0.6-2.5-1.1-4-1.3c-1.5-0.2-2.9-0.3-4.3-0.3h-9.9v17.3H858.8z"/>
		<path class="st0" d="M887.4,336c0-4.9,0.8-9.4,2.5-13.3c1.7-4,3.9-7.4,6.9-10.1c2.9-2.8,6.4-4.9,10.4-6.4c4-1.5,8.4-2.3,13.2-2.3
			c4.8,0,9.2,0.8,13.3,2.3c4.1,1.5,7.6,3.7,10.5,6.4c3,2.8,5.3,6.2,6.9,10.1c1.7,4,2.5,8.4,2.5,13.3c0,4.8-0.8,9.2-2.5,13.2
			c-1.6,4-4,7.4-6.9,10.3c-3,2.9-6.5,5.1-10.5,6.7c-4.1,1.6-8.5,2.4-13.3,2.4c-4.8,0-9.1-0.8-13.2-2.4c-4-1.6-7.5-3.8-10.4-6.7
			c-2.9-2.9-5.2-6.3-6.9-10.3C888.3,345.2,887.4,340.8,887.4,336z M899.4,336c0,3.3,0.5,6.3,1.5,9.1c1,2.8,2.5,5.1,4.4,7.2
			c1.9,2,4.1,3.6,6.7,4.7c2.6,1.1,5.4,1.7,8.6,1.7c3.1,0,6-0.6,8.6-1.7c2.6-1.1,4.9-2.7,6.7-4.7c1.9-2,3.3-4.4,4.3-7.2
			c1-2.8,1.5-5.8,1.5-9.1c0-3.2-0.5-6.1-1.5-8.9c-1-2.7-2.4-5.1-4.3-7.1c-1.9-2-4.1-3.6-6.7-4.8c-2.6-1.2-5.5-1.7-8.7-1.7
			s-6.1,0.6-8.7,1.7c-2.6,1.2-4.8,2.8-6.7,4.8c-1.9,2-3.3,4.4-4.3,7.1C899.9,329.8,899.4,332.8,899.4,336z"/>
		<path class="st0" d="M970.8,314.9H952v-9.6h48.7v9.6h-18.9v52h-11V314.9z"/>
		<path class="st0" d="M1004.7,305.4h40.8v9.6h-29.8v15.7h28.3v9.2h-28.3v17.4h31.4v9.7h-42.3V305.4z"/>
		<path class="st0" d="M1054.6,305.4h11v61.6h-11V305.4z"/>
		<path class="st0" d="M1076,305.4h14.5l28.6,46.1h0.2v-46.1h11v61.6h-13.9l-29.2-47.6h-0.2v47.6h-11V305.4z"/>
	</g>
	<g>
		<path class="st0" d="M1152.6,305.7h-6.4V323h-4.1v-17.2h-6.5v-3.7h17.1V305.7z M1180.2,323h-4.2v-15.6h-0.1l-6,15.6h-2.8
			l-6.1-15.6h-0.1V323h-4.1v-20.9h6l5.7,14.8l5.7-14.8h5.9V323z"/>
	</g>
</g>
<g>
	<path class="st0" d="M218.5,223.3c-4.6,11.2-11.2,20.8-19.7,28.8c-8.5,8-18.8,14.2-30.9,18.7c-12.1,4.5-25.4,6.7-40.2,6.7
		c-14.9,0-28.4-2.2-40.3-6.7c-12-4.5-22.1-10.7-30.4-18.7c-8.3-8-14.7-17.6-19.2-28.8c-4.5-11.2-6.7-23.6-6.7-37.3V44.9h54.4v136.7
		c0,6.2,0.8,12.1,2.4,17.6c1.6,5.6,4,10.5,7.4,14.9c3.3,4.4,7.7,7.8,13.1,10.4c5.4,2.6,12,3.8,19.7,3.8c7.7,0,14.2-1.3,19.7-3.8
		c5.5-2.6,9.9-6,13.3-10.4c3.4-4.4,5.9-9.3,7.4-14.9c1.5-5.6,2.2-11.4,2.2-17.6V44.9h54.7V186C225.3,199.7,223,212.1,218.5,223.3"/>
	<path class="st0" d="M1134.9,59.9c0-2.1,0.4-4,1.2-5.8c0.8-1.8,1.9-3.4,3.2-4.7c1.4-1.3,3-2.4,4.8-3.2c1.8-0.8,3.8-1.2,5.8-1.2
		c2.1,0,4,0.4,5.8,1.2c1.8,0.8,3.4,1.9,4.8,3.2c1.4,1.3,2.4,2.9,3.2,4.7c0.8,1.8,1.2,3.8,1.2,5.8c0,2.1-0.4,4-1.2,5.8
		c-0.8,1.8-1.9,3.4-3.2,4.7c-1.4,1.3-3,2.4-4.8,3.2c-1.8,0.8-3.8,1.2-5.8,1.2c-2.1,0-4-0.4-5.8-1.2c-1.8-0.8-3.4-1.8-4.8-3.2
		c-1.4-1.3-2.4-2.9-3.2-4.7C1135.3,63.9,1134.9,62,1134.9,59.9 M1137.3,59.9c0,1.7,0.3,3.3,1,4.9c0.7,1.5,1.6,2.9,2.7,4.1
		c1.1,1.2,2.5,2.1,4,2.7c1.5,0.7,3.2,1,4.9,1c1.8,0,3.4-0.3,5-1c1.5-0.7,2.9-1.6,4-2.7c1.1-1.2,2-2.5,2.7-4.1c0.7-1.5,1-3.2,1-4.9
		c0-1.8-0.3-3.4-1-4.9c-0.7-1.5-1.6-2.9-2.7-4c-1.1-1.1-2.5-2-4-2.7c-1.5-0.7-3.2-1-5-1c-1.8,0-3.4,0.3-4.9,1
		c-1.5,0.7-2.9,1.6-4,2.7c-1.1,1.1-2,2.5-2.7,4C1137.6,56.5,1137.3,58.1,1137.3,59.9 M1153.6,68.1l-3.6-6.5h-2.4v6.5h-4V51.2h7.3
		c0.8,0,1.6,0.1,2.3,0.3c0.8,0.2,1.4,0.5,2,0.9c0.6,0.4,1.1,0.9,1.5,1.6c0.4,0.7,0.6,1.5,0.6,2.5c0,1.1-0.3,2.1-1,2.8
		c-0.6,0.7-1.4,1.3-2.4,1.7l4.5,7.1H1153.6z M1150.6,58.7c0.6,0,1.2-0.2,1.7-0.6c0.5-0.4,0.8-0.9,0.8-1.6c0-0.7-0.3-1.2-0.9-1.5
		c-0.6-0.3-1.1-0.5-1.6-0.5h-3.1v4.2H1150.6z"/>
	<polygon class="st0" points="383.2,271.5 292,123.3 291.1,123.3 292.3,271.5 239.2,271.5 239.2,44.9 301.6,44.9 392.5,192.8 
		393.5,192.8 392.2,44.9 445.3,44.9 445.3,271.5 	"/>
	<path class="st0" d="M652.6,271.5c-13.1,0-24.5-1.8-34.2-5.3c-9.7-3.5-17.7-8.4-24.2-14.7c-6.5-6.2-11.3-13.5-14.5-21.7
		c-3.2-8.2-4.8-17-4.8-26.4c0-6.2,0.6-12.7,1.9-19.3l24.3-139.2h30.6L607.3,182c-1,5.8-1.6,11.3-1.6,16.5c0,6.2,0.8,12.1,2.5,17.6
		c1.7,5.5,4.4,10.4,8.3,14.6s8.8,7.6,14.8,10.1c6,2.5,13.4,3.7,22.2,3.7c10.8,0,20-1.8,27.5-5.3c7.5-3.5,13.7-8.3,18.7-14.2
		c5-5.9,8.9-12.6,11.7-20.1c2.8-7.5,4.9-15.2,6.4-23.1l24-137.1h30.6l-24.3,139.2c-2.1,11.2-5.4,22.1-9.8,32.6
		c-4.5,10.5-10.5,19.8-18.1,27.9c-7.6,8.1-17,14.6-28.1,19.5C680.9,269.1,667.8,271.5,652.6,271.5"/>
	<path class="st0" d="M787.9,271.5h-31l40-226.6h64.3c11.1,0,21.2,1.2,30.4,3.7c9.2,2.5,17,6.1,23.5,10.9c6.5,4.8,11.5,10.7,15,17.6
		c3.5,6.9,5.3,15,5.3,24.2c0,9.8-1.6,18.5-4.8,25.9c-3.2,7.5-7.6,13.9-13.1,19.4c-5.6,5.4-12.2,9.9-19.8,13.3
		c-7.7,3.4-16.1,5.9-25.3,7.4l48.3,104.3h-35.2l-45.1-101.1h-34.9L787.9,271.5z M810,144.4h34.9c8.1,0,15.7-0.6,22.9-1.9
		c7.1-1.3,13.3-3.5,18.6-6.6c5.2-3.1,9.4-7.2,12.5-12.2c3.1-5,4.6-11.4,4.6-19c0-11.9-4.2-20.5-12.6-25.6
		c-8.4-5.1-19.9-7.7-34.4-7.7h-33.3L810,144.4z"/>
	<polygon class="st0" points="1002,271.5 970.6,271.5 987.9,173.6 931,44.9 966.5,44.9 1008.1,148 1091,44.9 1129.4,44.9 
		1019.3,173.6 	"/>
	<path class="st0" d="M552.5,44.9l-27.5,152c-1.1,6.5-2.5,12.6-4.3,18.4c-1.8,5.8-4.3,10.9-7.4,15.3c-3.1,4.4-7,7.8-11.8,10.3
		c-4.8,2.5-10.8,3.7-18.1,3.7c-8.8,0-20.9-3.3-22.6-4v27.4c0,0,0,0,0.1,0c6.9,2.3,14.8,3.4,23.5,3.4c13.4,0,24.4-2.3,33-7
		c8.5-4.7,15.5-10.6,20.8-17.8c5.3-7.2,9.3-15,12-23.6c2.7-8.5,4.6-16.7,5.9-24.7l27.9-153.6H552.5z"/>
</g>
</svg>
