<?xml version="1.0" encoding="UTF-8"?>
<svg id="Layer_1" xmlns="http://www.w3.org/2000/svg" xmlns:xlink="http://www.w3.org/1999/xlink" version="1.1" viewBox="0 0 311.8 163.2">
  <!-- Generator: Adobe Illustrator 30.1.0, SVG Export Plug-In . SVG Version: 2.1.1 Build 136)  -->
  <defs>
    <style>
      .st0 {
        fill: url(#linear-gradient2);
      }

      .st1 {
        fill: url(#linear-gradient1);
      }

      .st2 {
        fill: url(#linear-gradient9);
      }

      .st3 {
        fill: url(#linear-gradient3);
      }

      .st4 {
        fill: url(#linear-gradient6);
      }

      .st5 {
        fill: url(#linear-gradient8);
      }

      .st6 {
        fill: url(#linear-gradient7);
      }

      .st7 {
        fill: url(#linear-gradient5);
      }

      .st8 {
        fill: url(#linear-gradient4);
      }

      .st9 {
        fill: url(#linear-gradient28);
      }

      .st10 {
        fill: url(#linear-gradient29);
      }

      .st11 {
        fill: url(#linear-gradient18);
      }

      .st12 {
        fill: url(#linear-gradient13);
      }

      .st13 {
        fill: url(#linear-gradient12);
      }

      .st14 {
        fill: url(#linear-gradient15);
      }

      .st15 {
        fill: url(#linear-gradient16);
      }

      .st16 {
        fill: url(#linear-gradient11);
      }

      .st17 {
        fill: url(#linear-gradient10);
      }

      .st18 {
        fill: url(#linear-gradient17);
      }

      .st19 {
        fill: url(#linear-gradient14);
      }

      .st20 {
        fill: url(#linear-gradient19);
      }

      .st21 {
        fill: url(#linear-gradient23);
      }

      .st22 {
        fill: url(#linear-gradient22);
      }

      .st23 {
        fill: url(#linear-gradient24);
      }

      .st24 {
        fill: url(#linear-gradient25);
      }

      .st25 {
        fill: url(#linear-gradient21);
      }

      .st26 {
        fill: url(#linear-gradient20);
      }

      .st27 {
        fill: url(#linear-gradient27);
      }

      .st28 {
        fill: url(#linear-gradient26);
      }

      .st29 {
        fill: url(#linear-gradient);
      }
    </style>
    <linearGradient id="linear-gradient" x1="43.6" y1="102.1" x2="43.6" y2="90.6" gradientUnits="userSpaceOnUse">
      <stop offset="0" stop-color="#6d6e71"/>
      <stop offset="1" stop-color="#000"/>
    </linearGradient>
    <linearGradient id="linear-gradient1" x1="55.6" x2="55.6" xlink:href="#linear-gradient"/>
    <linearGradient id="linear-gradient2" x1="66.9" x2="66.9" y2="90.6" xlink:href="#linear-gradient"/>
    <linearGradient id="linear-gradient3" x1="77.4" x2="77.4" y2="90.6" xlink:href="#linear-gradient"/>
    <linearGradient id="linear-gradient4" x1="87.3" x2="87.3" y2="90.6" xlink:href="#linear-gradient"/>
    <linearGradient id="linear-gradient5" x1="211.6" y1="54.3" x2="211.6" y2="54.3" gradientUnits="userSpaceOnUse">
      <stop offset="0" stop-color="#6d6e71"/>
      <stop offset="1" stop-color="#000"/>
    </linearGradient>
    <linearGradient id="linear-gradient6" x1="233.6" y1="85.9" x2="233.6" y2="57" xlink:href="#linear-gradient5"/>
    <linearGradient id="linear-gradient7" x1="233.6" y1="85.9" x2="233.6" y2="57" xlink:href="#linear-gradient5"/>
    <linearGradient id="linear-gradient8" x1="256.6" y1="58.7" x2="256.6" y2="58.7" xlink:href="#linear-gradient5"/>
    <linearGradient id="linear-gradient9" x1="255.8" y1="54.9" x2="255.8" y2="54.9" xlink:href="#linear-gradient5"/>
    <linearGradient id="linear-gradient10" x1="233.7" y1="54.9" x2="233.7" y2="38.2" xlink:href="#linear-gradient5"/>
    <linearGradient id="linear-gradient11" x1="233.7" y1="54.9" x2="233.7" y2="38.2" xlink:href="#linear-gradient5"/>
    <linearGradient id="linear-gradient12" x1="233.7" y1="54.9" x2="233.7" y2="38.1" xlink:href="#linear-gradient5"/>
    <linearGradient id="linear-gradient13" x1="233.7" y1="55" x2="233.7" y2="38.1" xlink:href="#linear-gradient5"/>
    <linearGradient id="linear-gradient14" x1="231.5" y1="58.8" x2="231.5" y2="53.3" xlink:href="#linear-gradient5"/>
    <linearGradient id="linear-gradient15" x1="234" y1="66.9" x2="234" y2="62.4" xlink:href="#linear-gradient5"/>
    <linearGradient id="linear-gradient16" x1="233.9" y1="85.6" x2="233.9" y2="47.3" xlink:href="#linear-gradient5"/>
    <linearGradient id="linear-gradient17" x1="218.9" y1="78.6" x2="218.9" y2="50.4" xlink:href="#linear-gradient5"/>
    <linearGradient id="linear-gradient18" x1="249" y1="78.6" x2="249" y2="50.4" xlink:href="#linear-gradient5"/>
    <linearGradient id="linear-gradient19" x1="88.5" y1="83.5" x2="88.5" y2="51.7" gradientUnits="userSpaceOnUse">
      <stop offset="0" stop-color="#6d6e71"/>
      <stop offset="1" stop-color="#000"/>
    </linearGradient>
    <linearGradient id="linear-gradient20" x1="110.1" y1="83.5" x2="110.1" y2="51.6" xlink:href="#linear-gradient"/>
    <linearGradient id="linear-gradient21" x1="130.7" y1="83.4" x2="130.7" y2="51.6" xlink:href="#linear-gradient"/>
    <linearGradient id="linear-gradient22" x1="161.1" y1="83.5" x2="161.1" y2="51.6" xlink:href="#linear-gradient"/>
    <linearGradient id="linear-gradient23" x1="188.5" y1="83.5" x2="188.5" y2="51.7" xlink:href="#linear-gradient"/>
    <linearGradient id="linear-gradient24" x1="107.2" y1="121.6" x2="107.2" y2="89.9" xlink:href="#linear-gradient"/>
    <linearGradient id="linear-gradient25" x1="128" y1="121.7" x2="128" y2="89.9" xlink:href="#linear-gradient"/>
    <linearGradient id="linear-gradient26" x1="148.1" y1="121.7" x2="148.1" y2="89.9" xlink:href="#linear-gradient"/>
    <linearGradient id="linear-gradient27" x1="176" y1="121.7" x2="176" y2="89.9" xlink:href="#linear-gradient"/>
    <linearGradient id="linear-gradient28" x1="206.3" y1="121.7" x2="206.3" y2="89.9" xlink:href="#linear-gradient"/>
    <linearGradient id="linear-gradient29" x1="237.9" y1="121.7" x2="237.9" y2="89.9" xlink:href="#linear-gradient"/>
  </defs>
  <g>
    <path class="st29" d="M47.8,90.6v11.5h-1v-6.2h-6.5v6.2h-1v-11.5h1v4.9h6.5v-4.9h1Z"/>
    <path class="st1" d="M55.6,90.6c.8,0,1.5.2,2.2.5.7.3,1.3.7,1.8,1.2.5.5.9,1.1,1.2,1.8.3.7.5,1.4.5,2.2s-.2,1.5-.5,2.2c-.3.7-.7,1.3-1.2,1.8-.5.5-1.1.9-1.8,1.2-.7.3-1.4.5-2.2.5s-1.5-.2-2.2-.5c-.7-.3-1.3-.7-1.8-1.2-.5-.5-.9-1.1-1.2-1.8-.3-.7-.5-1.4-.5-2.2s.2-1.5.5-2.2c.3-.7.7-1.3,1.2-1.8.5-.5,1.1-.9,1.8-1.2.7-.3,1.4-.5,2.2-.5ZM57.7,101.4c.6-.2,1.1-.6,1.5-1.1.4-.5.7-1,.9-1.7.2-.6.3-1.3.3-2,0-.7-.2-1.4-.5-2.1-.3-.7-.7-1.3-1.2-1.8-.5-.5-1-.9-1.6-1.2-.6-.3-1.2-.5-1.8-.5-.6,0-1.3,0-1.9.3-.6.3-1.1.6-1.5,1.1-.4.5-.7,1-.9,1.7-.2.6-.3,1.3-.3,2,0,.7.2,1.4.5,2.1.3.7.7,1.3,1.2,1.8.5.5,1,.9,1.6,1.2.6.3,1.2.5,1.8.5.6,0,1.3,0,1.9-.3Z"/>
    <path class="st0" d="M71.9,90.6v.8c-.3-.1-.5-.2-.8-.3-.2,0-.5-.1-.7-.2-.2,0-.4,0-.6,0h-2.4v11.2h-1v-11.2h-2.4c-.2,0-.4,0-.6,0-.2,0-.5.1-.7.2-.3,0-.5.2-.8.3v-.8h10Z"/>
    <path class="st3" d="M74.5,90.9v4.7h4.7v.3h-4.7v5.9h3.6c.3,0,.6,0,.9,0,.3,0,.7-.1,1-.2.4,0,.8-.2,1.2-.3v.9h-7.7v-11.5h7.7v.8c-.4-.1-.8-.2-1.2-.3-.3,0-.7-.1-1-.2-.3,0-.7,0-.9,0h-3.6Z"/>
    <path class="st8" d="M89,101.7c.3,0,.7-.1,1-.2.4,0,.8-.2,1.2-.3v.9h-7.7v-11.5h1v11.2h3.6c.2,0,.5,0,.9,0Z"/>
  </g>
  <g>
    <path class="st7" d="M211.6,54.3"/>
    <g>
      <path class="st4" d="M256.2,59.4c.7,6-.6,12.3-4.7,17-3.2,3.7-7.5,6.3-12.3,7.4-9.5,2.2-19.6-1.9-24.9-10.1-3.2-4.9-4.2-10.9-3.3-16.6,0,.5-.8,1-.9,1.5-1.9,11.4,4.7,22.7,15.8,26.3,10.4,3.3,21.6-1.2,27.2-10.4s4.5-10.6,3.8-16.5c0,.4-.9,1-.9,1.5h0Z"/>
      <path class="st6" d="M233,85.9c-2.4,0-4.7-.4-7-1.1-10.9-3.5-17.8-14.8-15.9-26.3,0-.3.3-.6.5-.8.2-.2.4-.5.4-.7t0,0h.1c-1,5.9.2,11.8,3.3,16.6,2.6,4,6.3,7.1,10.8,9,4.5,1.8,9.3,2.2,14,1.2,4.7-1.1,9-3.7,12.2-7.3,3.8-4.4,5.5-10.4,4.7-16.9h0c0-.3.2-.6.5-.9.2-.2.4-.5.4-.7h0s.1,0,.1,0h0c.7,5.7-.6,11.2-3.8,16.5-2.7,4.5-6.9,8-11.8,9.9-2.7,1.1-5.6,1.6-8.5,1.6ZM211,57.4c0,.1-.1.2-.2.3-.2.2-.4.5-.4.8-1.9,11.5,4.9,22.7,15.8,26.2,5,1.6,10.4,1.4,15.3-.5,4.9-1.9,9.1-5.4,11.8-9.9,3.2-5.2,4.4-10.6,3.8-16.1,0,.1-.2.3-.3.4-.2.3-.5.5-.4.8h0c.8,6.6-.9,12.6-4.7,17-3.2,3.7-7.6,6.3-12.3,7.4-4.7,1.1-9.5.7-14.1-1.2-4.5-1.8-8.3-5-10.9-9-3-4.7-4.2-10.5-3.4-16.2Z"/>
    </g>
    <path class="st5" d="M256.6,58.7"/>
    <path class="st2" d="M255.8,54.9"/>
    <g>
      <g>
        <path class="st17" d="M211.6,53.8c3.4-9.5,12.6-15,22.5-14.8,9.9.2,18.7,6.5,21.7,16,0-.1,0-.5,0-.7-3-9.4-11.8-15.8-21.7-16-9.9-.2-19.1,5.4-22.5,14.8,0,.2,0,.5,0,.7h0Z"/>
        <path class="st16" d="M255.7,54.9h0c-3-9.3-11.7-15.7-21.7-15.9-4.9-.1-9.6,1.2-13.6,3.8-4.1,2.6-7.1,6.4-8.8,11h-.1c0,0,0-.2,0-.3,0-.1,0-.3,0-.4,1.6-4.6,4.7-8.4,8.8-11.1,4-2.6,8.8-3.9,13.7-3.8,10,.2,18.8,6.7,21.8,16,0,.1,0,.3,0,.4,0,.1,0,.2,0,.3h0s-.1,0-.1,0ZM233.5,38.9c.2,0,.4,0,.5,0,9.9.2,18.6,6.5,21.7,15.7,0-.1,0-.2,0-.3-3-9.3-11.7-15.7-21.7-15.9-4.9,0-9.7,1.2-13.6,3.8-4.1,2.6-7.1,6.5-8.8,11,0,0,0,.2,0,.3,1.7-4.4,4.7-8.2,8.7-10.8,3.9-2.5,8.4-3.8,13.2-3.8Z"/>
      </g>
      <g>
        <path class="st13" d="M255.7,54.9c-3-9.3-11.7-15.7-21.6-15.9-4.9-.1-9.6,1.2-13.6,3.8-4.1,2.6-7.1,6.4-8.7,11h-.2c0,0,0-.2,0-.3,0-.1,0-.3,0-.4,1.6-4.6,4.7-8.4,8.8-11.1,4-2.6,8.8-3.9,13.7-3.8,10,.2,18.8,6.7,21.8,16.1,0,.1,0,.3,0,.4,0,0,0,.2,0,.2h-.2ZM233.5,38.9c.2,0,.4,0,.5,0,9.9.2,18.5,6.5,21.7,15.6,0,0,0-.1,0-.2-3-9.3-11.7-15.7-21.6-15.9-4.9-.1-9.6,1.2-13.6,3.8-4.1,2.6-7.1,6.4-8.8,11,0,0,0,.1,0,.2,1.7-4.4,4.7-8.1,8.7-10.7,3.9-2.5,8.4-3.8,13.2-3.8Z"/>
        <path class="st12" d="M255.7,55h0c-3-9.3-11.7-15.7-21.6-15.9-4.9-.1-9.6,1.2-13.6,3.8-4.1,2.6-7.1,6.4-8.7,11h0c0,0-.3,0-.3,0h0c0,0,0-.2,0-.3,0-.2,0-.3,0-.5,1.6-4.6,4.7-8.5,8.8-11.1,3.9-2.5,8.4-3.8,13.2-3.8s.4,0,.5,0c10,.2,18.8,6.7,21.9,16.1,0,.1,0,.3,0,.5,0,0,0,.2,0,.2h0c0,0-.3.2-.3.2ZM233.5,39c.2,0,.4,0,.5,0,9.9.2,18.6,6.6,21.7,15.9h0c0,0,0-.1,0-.2,0-.1,0-.3,0-.4-3-9.4-11.8-15.8-21.8-16-5-.1-9.7,1.2-13.7,3.8-4.1,2.7-7.2,6.5-8.8,11.1,0,.1,0,.3,0,.4,0,0,0,.2,0,.2h0c1.6-4.5,4.7-8.3,8.8-10.9,3.9-2.5,8.4-3.8,13.1-3.8ZM255.8,54.8v-.3c-3.2-9.1-11.9-15.4-21.7-15.6-4.9,0-9.7,1.2-13.7,3.8-4,2.6-7,6.2-8.6,10.6v.3c-.1,0-.1-.3-.1-.3,0-.1,0-.2,0-.2,1.6-4.6,4.7-8.4,8.8-11,3.9-2.5,8.4-3.8,13.1-3.8s.4,0,.5,0c10,.2,18.7,6.6,21.7,16,0,0,0,.1,0,.2v.3ZM233.5,38.8c.2,0,.4,0,.5,0,8.9.2,16.9,5.4,20.7,13.2-3.6-8-11.6-13.4-20.7-13.6-4.9-.1-9.6,1.2-13.6,3.8-3.5,2.2-6.2,5.3-7.9,8.9,1.8-3.4,4.4-6.3,7.7-8.5,3.9-2.5,8.4-3.8,13.2-3.8Z"/>
      </g>
    </g>
    <path class="st19" d="M260.5,55.4c-1.4-.1-2.7,0-4.1.3-1.2.3-2.4.8-3.7,1.3-1.2.4-2.4.8-3.6.9-.6,0-1.2,0-1.8,0-.7-.1-1.3-.4-1.9-.6-1.2-.6-2.3-1.2-3.6-1.5-1.3-.3-2.7-.3-4.1,0-1.2.2-3.4,1.2-4.4,1.8-2.3-1.4-3.8-3.3-6.5-3.9-1.3-.3-2.7-.4-4-.1-1.3.2-2.4.8-3.6,1.4-1.2.6-2.3,1.1-3.6,1.1-1.2,0-2.4-.3-3.6-.7-1.2-.4-2.4-.9-3.6-1.2-1.3-.4-2.6-.6-3.9-.5-2.8.1-5.5,1.2-8,2.3-.3.1-.6.3-1,.4-.2.1-.4.2-.7.4-.2.1-.4.3-.7.4,2.5-1.2,5.2-2.3,8-2.7,1.3-.2,2.7-.1,4,.2,1.2.3,2.4.8,3.6,1.2,1.2.4,2.4.8,3.6.9,1.3.1,2.5,0,3.6-.6,1.2-.5,2.3-1.3,3.5-1.6,1.3-.4,2.7-.4,4-.3,2.8.4,8.2,3,8.2,3.1.4.2.6.4.7.4.3,0,.7-.2.7-.2,1.2-.5,2-.8,2.5-.9,1.3-.3,2.6-.3,3.9,0,1.3.3,2.4.9,3.6,1.5,1.1.5,2.3.9,3.5.8,1.2,0,2.4-.4,3.5-.8,1.2-.4,2.3-.9,3.5-1.3,1.3-.4,3-.5,4.4-.5,2.8.1,9.4,2,9.5,1.9,0,0,.2-.1.2-.1-2.6-1.1-5.3-2.3-8.2-2.6Z"/>
    <path class="st14" d="M253.1,64.9c-2.5-1.1-4.3-1.9-7.1-2.2-1.4-.2-2.8-.4-4.2,0-1.3.3-2.4,1.1-3.6,1.5-1.2.4-2.4.8-3.6.9-.6,0-1.2,0-1.8-.1-.6-.1-1.3-.4-1.9-.7-1.2-.6-2.3-1.3-3.6-1.6-1.3-.3-2.7-.3-4.1,0-3,.5-5.7,2.2-8.2,3.7-.3.2-.6.4-.9.5,0,0-.1,0,0,0,.1,0,.2-.1.3-.2.3-.2.6-.3.9-.5.3-.2.6-.4.9-.5.1,0,.2-.1.4-.2,0,0,.1,0,0,0,0,0-.1,0-.2,0,0,0,.3-.2.4-.2.2,0,.3-.2.5-.3.3-.2.6-.3.9-.5,1.2-.6,2.5-1,3.8-1.3,1.3-.2,2.6-.2,3.9,0,1.3.3,2.4,1,3.5,1.5,1.1.6,2.3.9,3.5.9,1.2,0,2.4-.4,3.5-.8,1.2-.4,2.3-.9,3.5-1.2,1.3-.4,2.6-.5,3.9-.5,2.8.2,5.7.9,7.9,2.3.6.4,1.2,0,1.3,0,0,0,.9-.3.9-.3,0,0-.9-.3-1-.4Z"/>
    <path class="st15" d="M233.8,47.3c-.6,3.4-3.8,6-7.2,5.5v.3c.3,0,.6,0,1,0,2.8,0,5.2-1.7,6.2-4.3v3.8c-.3,1.6-1.2,3-2.5,4-1.4,1-3,1.4-4.7,1.1v.3c.3,0,.6,0,1,0,2.8,0,5.2-1.7,6.2-4.3v2.5c-.3,1.6-1.2,3-2.5,4-1.4,1-3,1.4-4.7,1.1v.3c.3,0,.6,0,1,0,1.4,0,2.8-.4,3.9-1.3,1.1-.8,1.8-1.8,2.3-3v2.5c-.3,1.6-1.2,3-2.5,4-1.4,1-3,1.4-4.7,1.1v.3c.3,0,.6,0,1,0,2.8,0,5.2-1.7,6.2-4.3v2.5c-.6,3.4-3.8,5.7-7.2,5.2v.3c.3,0,.6,0,1,0,2.8,0,5.2-1.7,6.2-4.3v2.5c-.3,1.6-1.2,3-2.5,4-1.4,1-3,1.4-4.7,1.1v.3c.3,0,.6,0,1,0,1.4,0,2.8-.4,3.9-1.3,1.1-.8,1.8-1.8,2.3-3v2.5c-.3,1.6-1.2,3-2.5,4-1.4,1-3,1.4-4.7,1.1v.3c.3,0,.6,0,1,0,2.8,0,5.2-1.7,6.2-4.3v7.5c0,1.1,0,2.7,0,4.9,0,0,0-.5,0-.5,0,.1,0,.9.2.9s.2-.8.2-.9c0-1.3,0-2.1,0-3.5v-8.5c1,2.6,3.4,4.3,6.2,4.3s.7,0,1,0v-.3c-1.7.3-3.4-.2-4.7-1.1-1.3-1-2.2-2.4-2.5-4v-2.5c.4,1.2,1.2,2.2,2.3,3,1.1.8,2.5,1.3,3.9,1.3s.7,0,1,0v-.3c-1.7.3-3.4-.2-4.7-1.1-1.3-1-2.2-2.4-2.5-4v-2.5c1,2.6,3.4,4.3,6.2,4.3s.7,0,1,0v-.3c-3.5.5-6.6-1.8-7.2-5.2v-2.5c1,2.6,3.4,4.3,6.2,4.3s.7,0,1,0v-.3c-1.7.3-3.4-.2-4.7-1.1-1.3-1-2.2-2.4-2.5-4h0v-2.5c.4,1.2,1.2,2.2,2.3,3,1.1.8,2.5,1.3,3.9,1.3s.7,0,1,0v-.3c-1.7.3-3.4-.2-4.7-1.1-1.3-1-2.2-2.4-2.5-4v-2.5c1,2.6,3.4,4.3,6.2,4.3s.7,0,1,0v-.3c-1.7.3-3.4-.2-4.7-1.1-1.3-1-2.2-2.4-2.5-4v-3.8c1,2.6,3.4,4.3,6.2,4.3s.7,0,1,0v-.3c-3.5.5-6.6-2.1-7.2-5.5"/>
    <path class="st18" d="M218.7,50.4c-.4,2.5-2.8,4.4-5.3,4.1v.2c.2,0,.5,0,.7,0,2,0,3.9-1.3,4.6-3.2v2.8c-.2,1.2-.8,2.2-1.8,3-1,.7-2.2,1-3.4.8v.2c.2,0,.5,0,.7,0,2,0,3.9-1.3,4.6-3.2v1.8c-.2,1.2-.8,2.2-1.8,3-1,.7-2.2,1-3.4.8v.2c.2,0,.5,0,.7,0,1,0,2-.3,2.9-.9.8-.6,1.4-1.3,1.7-2.2v1.8c-.2,1.2-.8,2.2-1.8,3-1,.7-2.2,1-3.4.8v.2c.2,0,.5,0,.7,0,2,0,3.9-1.3,4.6-3.2v1.8c-.4,2.5-2.8,4.2-5.3,3.8v.2c.2,0,.5,0,.7,0,2,0,3.9-1.3,4.6-3.2v1.8c-.2,1.2-.8,2.2-1.8,3-1,.7-2.2,1-3.4.8v.2c.2,0,.5,0,.7,0,1,0,2-.3,2.9-.9.8-.6,1.4-1.3,1.7-2.2v1.8c-.2,1.2-.8,2.2-1.8,3-1,.7-2.2,1-3.4.8v.2c.2,0,.5,0,.7,0,2,0,3.9-1.3,4.6-3.2v5.5c0,.8,0,2,0,3.6,0,0,0-.4,0-.3,0,0,0,.7.1.7s.1-.6.1-.7c0-1,0-1.6,0-2.6v-6.2c.7,1.9,2.5,3.2,4.6,3.2s.5,0,.7,0v-.2c-1.3.2-2.5-.1-3.5-.8-1-.7-1.6-1.8-1.8-3v-1.8c.3.9.9,1.6,1.7,2.2.8.6,1.8.9,2.9.9s.5,0,.8,0v-.2c-1.3.2-2.5-.1-3.5-.8-1-.7-1.6-1.8-1.8-3v-1.8c.7,1.9,2.5,3.2,4.6,3.2s.5,0,.7,0v-.2c-2.5.4-4.9-1.3-5.3-3.8v-1.8c.7,1.9,2.5,3.2,4.6,3.2s.5,0,.7,0v-.2c-1.3.2-2.5-.1-3.5-.8-1-.7-1.6-1.8-1.8-3h0v-1.8c.3.9.9,1.6,1.7,2.2.8.6,1.8.9,2.9.9s.5,0,.8,0v-.2c-1.3.2-2.5-.1-3.5-.8-1-.7-1.6-1.8-1.8-3v-1.8c.7,1.9,2.5,3.2,4.6,3.2s.5,0,.7,0v-.2c-1.3.2-2.5-.1-3.5-.8-1-.7-1.6-1.8-1.8-3v-2.8c.7,1.9,2.5,3.2,4.6,3.2s.5,0,.7,0v-.2c-2.5.4-4.9-1.6-5.3-4.1"/>
    <path class="st11" d="M248.9,50.4c-.4,2.5-2.8,4.4-5.3,4.1v.2c.2,0,.5,0,.7,0,2,0,3.9-1.3,4.6-3.2v2.8c-.2,1.2-.8,2.2-1.8,3-1,.7-2.2,1-3.4.8v.2c.2,0,.5,0,.7,0,2,0,3.9-1.3,4.6-3.2v1.8c-.2,1.2-.8,2.2-1.8,3-1,.7-2.2,1-3.4.8v.2c.2,0,.5,0,.7,0,1,0,2-.3,2.9-.9.8-.6,1.4-1.3,1.7-2.2v1.8c-.2,1.2-.8,2.2-1.8,3-1,.7-2.2,1-3.4.8v.2c.2,0,.5,0,.7,0,2,0,3.9-1.3,4.6-3.2v1.8c-.4,2.5-2.8,4.2-5.3,3.8v.2c.2,0,.5,0,.7,0,2,0,3.9-1.3,4.6-3.2v1.8c-.2,1.2-.8,2.2-1.8,3-1,.7-2.2,1-3.4.8v.2c.2,0,.5,0,.7,0,1,0,2-.3,2.9-.9.8-.6,1.4-1.3,1.7-2.2v1.8c-.2,1.2-.8,2.2-1.8,3-1,.7-2.2,1-3.4.8v.2c.2,0,.5,0,.7,0,2,0,3.9-1.3,4.6-3.2v5.5c0,.8,0,2,0,3.6,0,0,0-.4,0-.3,0,0,0,.7.1.7s.1-.6.1-.7c0-1,0-1.6,0-2.6v-6.2c.7,1.9,2.5,3.2,4.6,3.2s.5,0,.7,0v-.2c-1.3.2-2.5-.1-3.5-.8-1-.7-1.6-1.8-1.8-3v-1.8c.3.9.9,1.6,1.7,2.2.8.6,1.8.9,2.9.9s.5,0,.8,0v-.2c-1.3.2-2.5-.1-3.5-.8-1-.7-1.6-1.8-1.8-3v-1.8c.7,1.9,2.5,3.2,4.6,3.2s.5,0,.7,0v-.2c-2.5.4-4.9-1.3-5.3-3.8v-1.8c.7,1.9,2.5,3.2,4.6,3.2s.5,0,.7,0v-.2c-1.3.2-2.5-.1-3.5-.8-1-.7-1.6-1.8-1.8-3h0v-1.8c.3.9.9,1.6,1.7,2.2.8.6,1.8.9,2.9.9s.5,0,.8,0v-.2c-1.3.2-2.5-.1-3.5-.8-1-.7-1.6-1.8-1.8-3v-1.8c.7,1.9,2.5,3.2,4.6,3.2s.5,0,.7,0v-.2c-1.3.2-2.5-.1-3.5-.8-1-.7-1.6-1.8-1.8-3v-2.8c.7,1.9,2.5,3.2,4.6,3.2s.5,0,.7,0v-.2c-2.5.4-4.9-1.6-5.3-4.1"/>
  </g>
  <path class="st20" d="M99.9,51.7v.4c-.3.9-.6,2-1,3.3-.3,1.1-.8,2.4-1.3,4-.6,1.6-1.3,3.5-2.1,5.5-.5,1.2-1.1,2.6-1.7,4.1-.6,1.5-1.3,3.1-1.9,4.6-.6,1.5-1.2,3-1.8,4.3-.3.7-.6,1.4-.8,2l-11.8-28.2h-4l13.2,31.8h3.6l13.2-31.8h-3.6Z"/>
  <rect class="st26" x="108.2" y="51.6" width="3.7" height="31.9"/>
  <path class="st25" d="M143,77.8c.6-1.1.9-2.3.9-3.6,0-1.2-.3-2.4-.9-3.6-.6-1.2-1.6-2.2-2.9-3.1h0c-.9-.6-2-1.1-3-1.5-1-.4-2.1-.6-3.2-.8-1.1-.2-2.1-.4-3.2-.5-1-.1-2.1-.3-3-.4-1.1-.2-2-.5-2.9-.9-.9-.4-1.6-.8-2.1-1.3-.5-.5-.9-1.1-1.1-1.8-.2-.7-.1-1.6.1-2.5.2-.6.5-1.2.9-1.7.4-.5,1-1,1.6-1.4.7-.4,1.5-.7,2.5-.9,1-.2,2.1-.3,3.5-.2,1,0,1.9.2,2.7.5.9.3,1.7.6,2.4,1,.7.4,1.4.8,1.9,1.3.6.5,1.1.9,1.5,1.3l.4.4,2.1-2.7-.5-.3c-2.6-1.6-5.2-2.6-7.6-3-2.4-.4-4.6-.5-6.6,0-2,.4-3.7,1.2-5,2.3-1.4,1.1-2.3,2.5-2.7,4-.4,1.7-.3,3.3.4,4.9.7,1.6,2,2.9,4.1,3.8,1.1.5,2.4.9,3.7,1.2,1.3.3,2.7.5,4,.7,1.3.2,2.7.4,3.9.7,1.2.2,2.3.6,3.2,1.1.9.5,1.6,1.1,2,1.9.5.7.6,1.8.5,3,0,.7-.3,1.5-.8,2.1-.4.7-1,1.3-1.7,1.9-.7.6-1.6,1-2.6,1.4-1,.3-2.1.5-3.4.6-1.7,0-3.6-.3-5.6-1.1-2-.8-4.1-2.3-6.3-4.6l-.4-.4-2.5,2.7.5.4c2.5,1.6,4.8,2.9,7,3.6,2.2.8,4.3,1.2,6.2,1.3.3,0,.6,0,.9,0,1.5,0,3-.2,4.2-.6,1.5-.5,2.8-1.1,3.9-2,1.1-.9,2-1.9,2.5-3Z"/>
  <path class="st22" d="M170.5,53.7c.6.2,1.2.3,1.8.5.7.2,1.4.5,2.1.7l.8.3v-3.6h-28v3.6l.8-.3c.7-.3,1.4-.5,2.1-.7.6-.2,1.2-.3,1.8-.5.6-.1,1.1-.2,1.5-.2h5.9v30h3.8v-30h6c.4,0,.9,0,1.5.2Z"/>
  <path class="st21" d="M177.6,83.5l4-9.7h15.3c.5,1.4,1,2.7,1.3,3.8.4,1.2.7,2.2.9,3l.8,2.9h3.5l-13.2-31.8h-3.6l-13.2,31.8h4ZM182.4,71.8l7-16.8,6.7,16.8h-13.7Z"/>
  <path class="st23" d="M116.5,105.8h0c-.9-.6-2-1.1-3-1.5-1-.4-2.1-.6-3.2-.8-1.1-.2-2.1-.4-3.2-.5-1-.1-2.1-.3-3-.4-1.1-.2-2-.5-2.9-.9-.9-.4-1.6-.8-2.1-1.3-.5-.5-.9-1.1-1.1-1.8-.2-.7-.1-1.6.1-2.5.2-.6.5-1.2.9-1.7.4-.5,1-1,1.6-1.4.7-.4,1.5-.7,2.5-.9,1-.2,2.1-.3,3.5-.2,1,0,1.9.2,2.7.5.9.3,1.7.6,2.4,1,.7.4,1.4.8,1.9,1.3.6.5,1.1.9,1.5,1.3l.4.4,2.1-2.7-.5-.3c-2.6-1.6-5.2-2.6-7.6-3-2.4-.4-4.6-.5-6.6,0-2,.4-3.7,1.2-5,2.3-1.4,1.1-2.3,2.5-2.7,4-.4,1.7-.3,3.3.4,4.9.7,1.6,2,2.9,4.1,3.8,1.1.5,2.4.9,3.7,1.2,1.3.3,2.7.5,4,.7,1.3.2,2.7.4,3.9.7,1.2.2,2.3.6,3.2,1.1.9.5,1.6,1.1,2,1.9.5.7.6,1.8.5,3,0,.7-.3,1.5-.8,2.1-.4.7-1,1.3-1.7,1.9-.7.6-1.6,1-2.6,1.4-1,.3-2.1.5-3.4.6-1.7,0-3.6-.3-5.6-1.1-2-.8-4.1-2.3-6.3-4.6l-.4-.4-2.5,2.7.5.4c2.5,1.6,4.8,2.9,7,3.6,2.2.8,4.3,1.2,6.2,1.3.3,0,.6,0,.9,0,1.5,0,3-.2,4.2-.6,1.5-.5,2.8-1.1,3.9-2,1.1-.9,2-1.9,2.5-3,.6-1.1.9-2.3.9-3.6,0-1.2-.3-2.4-.9-3.6-.6-1.2-1.6-2.2-2.9-3.1Z"/>
  <rect class="st24" x="126.1" y="89.9" width="3.7" height="31.9"/>
  <path class="st28" d="M137.2,121.7h21.8v-3.6l-.7.2c-1.1.3-2.1.6-3.1.8-.9.2-1.8.4-2.7.5-.9.1-1.7.2-2.4.2h-9.2v-14.8h12.6v-1.9h-12.6v-11.4h9.2c.7,0,1.5,0,2.4.2.9.2,1.8.3,2.7.5,1,.2,2.1.5,3.1.7l.7.2v-3.5h-21.8v31.9Z"/>
  <path class="st27" d="M186.8,116.8c-.5-1.3-1.1-2.6-1.9-3.8-.8-1.2-1.7-2.2-2.7-3.1-.6-.5-1.2-.9-1.8-1.3.6-.1,1.2-.3,1.8-.6,1.1-.5,2.1-1.2,2.9-2.1.8-.9,1.5-1.9,1.9-3,.5-1.1.7-2.3.7-3.6s-.4-3.2-1.3-4.5c-.8-1.3-1.9-2.4-3.3-3.2-.7-.4-1.5-.8-2.3-1-.8-.2-1.7-.4-2.6-.5-1-.1-2.1-.2-3.3-.2-1.2,0-2.6,0-4.2,0h-6.9v31.9h3.7v-12.9h5.9c1.4.2,2.7.7,3.8,1.4,1.1.7,2.2,1.7,3,2.8.9,1.1,1.6,2.4,2.2,3.8.6,1.4,1,2.9,1.4,4.5v.4h3.9v-.6c-.3-1.5-.6-2.9-1.1-4.3ZM176.1,91.8c.9,0,1.6.1,2.2.3.6.1,1.2.4,1.8.7,1.3.7,2.3,1.7,2.9,2.9.6,1.2.9,2.6.9,3.9,0,1-.2,2-.6,2.9-.4.9-.9,1.7-1.6,2.3-.7.7-1.6,1.2-2.6,1.6-1,.4-2.2.6-3.6.6h-7.7v-15.2c2,0,3.6,0,4.9,0,1.4,0,2.6,0,3.5,0Z"/>
  <path class="st9" d="M217.1,116.8c-.5-1.3-1.1-2.6-1.9-3.8-.8-1.2-1.7-2.2-2.7-3.1-.6-.5-1.2-.9-1.8-1.3.6-.1,1.2-.3,1.8-.6,1.1-.5,2.1-1.2,2.9-2.1.8-.9,1.5-1.9,1.9-3,.5-1.1.7-2.3.7-3.6s-.4-3.2-1.3-4.5c-.8-1.3-1.9-2.4-3.3-3.2-.7-.4-1.5-.8-2.3-1-.8-.2-1.7-.4-2.6-.5-1-.1-2.1-.2-3.3-.2-1.2,0-2.6,0-4.2,0h-6.9v31.9h3.7v-12.9h5.9c1.4.2,2.7.7,3.8,1.4,1.1.7,2.2,1.7,3,2.8.9,1.1,1.6,2.4,2.2,3.8.6,1.4,1,2.9,1.4,4.5v.4h3.9v-.6c-.3-1.5-.6-2.9-1.1-4.3ZM206.5,91.8c.9,0,1.6.1,2.2.3.6.1,1.2.4,1.8.7,1.3.7,2.3,1.7,2.9,2.9.6,1.2.9,2.6.9,3.9,0,1-.2,2-.6,2.9-.4.9-.9,1.7-1.6,2.3-.7.7-1.6,1.2-2.6,1.6-1,.4-2.2.6-3.6.6h-7.7v-15.2c2,0,3.6,0,4.9,0,1.4,0,2.6,0,3.5,0Z"/>
  <path class="st10" d="M239.8,89.9h-3.6l-13.2,31.8h4l4-9.7h15.3c.5,1.4,1,2.7,1.3,3.8.4,1.2.7,2.2.9,3l.8,2.9h3.5l-13.2-31.8ZM231.8,110.1l7-16.8,6.7,16.8h-13.7Z"/>
</svg>