<?xml version="1.0" encoding="UTF-8"?>
<svg id="a" data-name="Layer 1" xmlns="http://www.w3.org/2000/svg" width="238.695" height="183.764" viewBox="0 0 238.695 183.764">
  <path d="M111.543,.165c32.316-1.355,62.052,5.367,85.207,29.678,17.263,18.125,24.967,40.909,27.952,65.32,.699,5.715,1.975,9.843,7.17,13.285,6.809,4.512,8.485,13.247,5.191,19.901-3.092,6.247-9.906,9.102-17.837,7.704-8.399-1.481-11.456-7.349-12.137-14.88-.539-5.953,2.871-10.271,7.476-13.35,2.809-1.878,3.871-3.694,3.591-7.134-3.064-37.654-22.134-77.52-64.91-88.706C114.057,1.735,76.707,4.86,47.376,36.912c-16.458,17.985-23.809,40.364-25.981,64.562-.383,4.267,2.229,5.493,4.509,7.657,5.237,4.97,8.129,11.106,5.215,18.102-2.633,6.322-7.657,9.876-15.116,10.018-8.1,.154-12.36-4.247-14.923-10.967-2.79-7.316,.051-13.266,5.979-17.47,4.348-3.083,6.036-6.886,6.948-11.948,4.728-26.242,12.474-51.233,32.716-70.22C64.894,9.601,86.705,1.151,111.543,.165Z" fill="#0a3cef"/>
  <path d="M193.952,80.902c-2.173-13.305-9.804-22.555-23.063-24.636-32.135-5.044-64.624-4.705-96.813-1.571-20.794,2.024-27.994,11.929-30.014,33.259-2.032,21.449-.941,42.952-.349,64.402,.37,13.396,10.276,26.077,25.499,29.068,19.373,3.807,38.944,1.709,58.404,2.165,12.098-.162,24.233,.209,36.286-.617,16.608-1.139,29.556-12.604,30.571-29.037,1.501-24.291,3.449-48.724-.522-73.033Zm-16.148,64.93c-1.979,17.503-7.066,22.087-24.68,22.713-10.88,.386-21.775,.337-32.664,.483-.003-.224-19.852,.027-29.768-.213-6.493-.157-12.269-1.054-18.184-2.939-5.551-1.77-8.889-5.252-10.348-11.146-3.737-15.102-1.374-30.393-1.817-45.58-.217-7.441-.135-14.953,1.035-22.448,1.594-10.213,7.628-16.944,17.145-17.497,27.807-1.615,55.748-3.465,83.481,.906,10.678,1.683,15.659,7.238,16.125,17.84,.849,19.281,1.85,38.625-.327,57.882Z" fill="#0a3cef"/>
  <g>
    <path d="M98.164,136.932c1.412,0,2.674-.234,3.785-.701,1.111-.467,2.051-1.137,2.82-2.009,.768-.873,1.355-1.937,1.76-3.193,.405-1.257,.607-2.685,.607-4.284v-26.887h10.53v26.887c0,2.784-.452,5.338-1.355,7.665-.904,2.326-2.197,4.331-3.879,6.013s-3.729,2.991-6.138,3.926c-2.41,.935-5.12,1.402-8.131,1.402-3.033,0-5.753-.467-8.163-1.402-2.41-.935-4.456-2.243-6.138-3.926-1.683-1.682-2.971-3.687-3.863-6.013-.894-2.326-1.34-4.881-1.34-7.665v-26.887h10.531v26.855c0,1.6,.202,3.028,.607,4.284,.405,1.257,.992,2.326,1.76,3.209,.768,.883,1.708,1.558,2.819,2.025,1.111,.467,2.373,.701,3.786,.701Z" fill="#beef60"/>
    <path d="M141.904,99.857c3.198,0,5.945,.379,8.241,1.137,2.295,.758,4.185,1.802,5.67,3.131,1.485,1.33,2.581,2.897,3.287,4.705s1.06,3.759,1.06,5.857c0,2.264-.364,4.341-1.091,6.231-.728,1.89-1.838,3.51-3.334,4.86-1.495,1.351-3.391,2.404-5.686,3.163s-5.011,1.137-8.147,1.137h-5.483v15.173h-10.53v-45.393h16.013Zm0,22.276c2.742,0,4.715-.654,5.92-1.963,1.204-1.309,1.807-3.136,1.807-5.483,0-1.038-.155-1.983-.467-2.835-.312-.852-.784-1.583-1.418-2.196s-1.433-1.085-2.398-1.417-2.114-.499-3.443-.499h-5.483v14.394h5.483Z" fill="#beef60"/>
  </g>
</svg>