<?xml version="1.0" encoding="utf-8"?>
<!-- Generator: Adobe Illustrator 26.5.0, SVG Export Plug-In . SVG Version: 6.00 Build 0)  -->
<svg version="1.1" id="a" xmlns="http://www.w3.org/2000/svg" xmlns:xlink="http://www.w3.org/1999/xlink" x="0px" y="0px"
	 viewBox="0 0 238.7 183.8" style="enable-background:new 0 0 238.7 183.8;" xml:space="preserve">
<style type="text/css">
	.st0{fill:#FFFFFF;}
</style>
<path class="st0" d="M111.5,0.2c32.3-1.4,62.1,5.4,85.2,29.7c17.3,18.1,25,40.9,28,65.3c0.7,5.7,2,9.8,7.2,13.3
	c6.8,4.5,8.5,13.2,5.2,19.9c-3.1,6.2-9.9,9.1-17.8,7.7c-8.4-1.5-11.5-7.3-12.1-14.9c-0.5-6,2.9-10.3,7.5-13.3
	c2.8-1.9,3.9-3.7,3.6-7.1C215.1,63,196,23.2,153.2,12C114.1,1.7,76.7,4.9,47.4,36.9c-16.5,18-23.8,40.4-26,64.6
	c-0.4,4.3,2.2,5.5,4.5,7.7c5.2,5,8.1,11.1,5.2,18.1c-2.6,6.3-7.7,9.9-15.1,10c-8.1,0.2-12.4-4.2-14.9-11c-2.8-7.3,0.1-13.3,6-17.5
	c4.3-3.1,6-6.9,6.9-11.9c4.7-26.2,12.5-51.2,32.7-70.2C64.9,9.6,86.7,1.2,111.5,0.2z"/>
<path class="st0" d="M194,80.9c-2.2-13.3-9.8-22.6-23.1-24.6c-32.1-5-64.6-4.7-96.8-1.6c-20.8,2-28,11.9-30,33.3
	c-2,21.4-0.9,43-0.3,64.4c0.4,13.4,10.3,26.1,25.5,29.1c19.4,3.8,38.9,1.7,58.4,2.2c12.1-0.2,24.2,0.2,36.3-0.6
	c16.6-1.1,29.6-12.6,30.6-29C196,129.6,197.9,105.2,194,80.9L194,80.9z M177.8,145.8c-2,17.5-7.1,22.1-24.7,22.7
	c-10.9,0.4-21.8,0.3-32.7,0.5c0-0.2-19.9,0-29.8-0.2c-6.5-0.2-12.3-1.1-18.2-2.9c-5.6-1.8-8.9-5.3-10.3-11.1
	c-3.7-15.1-1.4-30.4-1.8-45.6c-0.2-7.4-0.1-15,1-22.4C63,76.5,69,69.8,78.5,69.2c27.8-1.6,55.7-3.5,83.5,0.9
	c10.7,1.7,15.7,7.2,16.1,17.8C179,107.2,180,126.6,177.8,145.8L177.8,145.8z"/>
<g>
	<path class="st0" d="M98.2,136.9c1.4,0,2.7-0.2,3.8-0.7c1.1-0.5,2.1-1.1,2.8-2c0.8-0.9,1.4-1.9,1.8-3.2c0.4-1.3,0.6-2.7,0.6-4.3
		V99.9h10.5v26.9c0,2.8-0.5,5.3-1.4,7.7c-0.9,2.3-2.2,4.3-3.9,6s-3.7,3-6.1,3.9c-2.4,0.9-5.1,1.4-8.1,1.4c-3,0-5.8-0.5-8.2-1.4
		s-4.5-2.2-6.1-3.9c-1.7-1.7-3-3.7-3.9-6c-0.9-2.3-1.3-4.9-1.3-7.7V99.9h10.5v26.9c0,1.6,0.2,3,0.6,4.3c0.4,1.3,1,2.3,1.8,3.2
		c0.8,0.9,1.7,1.6,2.8,2S96.7,136.9,98.2,136.9L98.2,136.9z"/>
	<path class="st0" d="M141.9,99.9c3.2,0,5.9,0.4,8.2,1.1c2.3,0.8,4.2,1.8,5.7,3.1c1.5,1.3,2.6,2.9,3.3,4.7s1.1,3.8,1.1,5.9
		c0,2.3-0.4,4.3-1.1,6.2c-0.7,1.9-1.8,3.5-3.3,4.9c-1.5,1.4-3.4,2.4-5.7,3.2s-5,1.1-8.1,1.1h-5.5v15.2h-10.5V99.9L141.9,99.9
		L141.9,99.9z M141.9,122.1c2.7,0,4.7-0.7,5.9-2c1.2-1.3,1.8-3.1,1.8-5.5c0-1-0.2-2-0.5-2.8s-0.8-1.6-1.4-2.2s-1.4-1.1-2.4-1.4
		s-2.1-0.5-3.4-0.5h-5.5v14.4L141.9,122.1L141.9,122.1z"/>
</g>
</svg>
